<?xml version="1.0" encoding="UTF-8" standalone="no"?>
<!-- Generator: Blender, SVG Export for Grease Pencil - v1.0 -->

<svg
   version="1.0"
   x="0px"
   y="0px"
   width="114"
   height="32"
   viewBox="0 0 1407.4074 395.06173"
   id="svg4921"
   sodipodi:docname="wiki_header_rev7.svg"
   inkscape:version="1.3 (0e150ed6c4, 2023-07-21)"
   xmlns:inkscape="http://www.inkscape.org/namespaces/inkscape"
   xmlns:sodipodi="http://sodipodi.sourceforge.net/DTD/sodipodi-0.dtd"
   xmlns:xlink="http://www.w3.org/1999/xlink"
   xmlns="http://www.w3.org/2000/svg"
   xmlns:svg="http://www.w3.org/2000/svg">
  <defs
     id="defs4925">
    <linearGradient
       inkscape:collect="always"
       id="linearGradient56587">
      <stop
         style="stop-color:#222222;stop-opacity:1"
         offset="0"
         id="stop56583" />
      <stop
         style="stop-color:#343434;stop-opacity:1"
         offset="1"
         id="stop56585" />
    </linearGradient>
    <linearGradient
       inkscape:collect="always"
       id="linearGradient55061">
      <stop
         style="stop-color:#c2c2c2;stop-opacity:1"
         offset="0"
         id="stop55057" />
      <stop
         style="stop-color:#c2c2c2;stop-opacity:1"
         offset="0.36397317"
         id="stop55193" />
      <stop
         style="stop-color:#c2c2c2;stop-opacity:1"
         offset="0.48257837"
         id="stop55195" />
      <stop
         style="stop-color:#c2c2c2;stop-opacity:1"
         offset="1"
         id="stop55059" />
    </linearGradient>
    <linearGradient
       inkscape:collect="always"
       id="linearGradient53095">
      <stop
         style="stop-color:#798086;stop-opacity:1"
         offset="0"
         id="stop53091" />
      <stop
         style="stop-color:#ededee;stop-opacity:1"
         offset="0.22585496"
         id="stop53227" />
      <stop
         style="stop-color:#798086;stop-opacity:1"
         offset="0.63772559"
         id="stop53293" />
      <stop
         style="stop-color:#ededee;stop-opacity:1"
         offset="1"
         id="stop53093" />
    </linearGradient>
    <linearGradient
       inkscape:collect="always"
       id="linearGradient51459">
      <stop
         style="stop-color:#f1f2f3;stop-opacity:1"
         offset="0"
         id="stop51455" />
      <stop
         style="stop-color:#cbcfd3;stop-opacity:1"
         offset="0.15015964"
         id="stop51657" />
      <stop
         style="stop-color:#f1f2f3;stop-opacity:1"
         offset="0.74394262"
         id="stop51527" />
      <stop
         style="stop-color:#cbcfd3;stop-opacity:1"
         offset="1"
         id="stop51457" />
    </linearGradient>
    <linearGradient
       inkscape:collect="always"
       id="linearGradient50021">
      <stop
         style="stop-color:#bbbfc2;stop-opacity:1"
         offset="0"
         id="stop50017" />
      <stop
         style="stop-color:#a1a4a9;stop-opacity:1"
         offset="0.21350947"
         id="stop50347" />
      <stop
         style="stop-color:#bbbfc2;stop-opacity:1"
         offset="0.76857781"
         id="stop50153" />
      <stop
         style="stop-color:#a1a4a9;stop-opacity:1"
         offset="1"
         id="stop50019" />
    </linearGradient>
    <linearGradient
       inkscape:collect="always"
       id="linearGradient48873">
      <stop
         style="stop-color:#f0f3f7;stop-opacity:1"
         offset="0"
         id="stop48869" />
      <stop
         style="stop-color:#ebeff4;stop-opacity:1"
         offset="0.17347305"
         id="stop49069" />
      <stop
         style="stop-color:#f0f3f7;stop-opacity:0.98911071"
         offset="0.69315368"
         id="stop49135" />
      <stop
         style="stop-color:#ebeff4;stop-opacity:1"
         offset="1"
         id="stop48871" />
    </linearGradient>
    <linearGradient
       inkscape:collect="always"
       xlink:href="#linearGradient48873"
       id="linearGradient48875"
       x1="93.169594"
       y1="262.70413"
       x2="93.169594"
       y2="13.581681"
       gradientUnits="userSpaceOnUse"
       gradientTransform="translate(9.2592593)" />
    <linearGradient
       inkscape:collect="always"
       xlink:href="#linearGradient50021"
       id="linearGradient50023"
       x1="637.97656"
       y1="295.65146"
       x2="637.97656"
       y2="14.707319"
       gradientUnits="userSpaceOnUse"
       gradientTransform="translate(9.2592593)" />
    <linearGradient
       inkscape:collect="always"
       xlink:href="#linearGradient51459"
       id="linearGradient51461"
       x1="704.39844"
       y1="300.97302"
       x2="704.39844"
       y2="9.8147135"
       gradientUnits="userSpaceOnUse"
       gradientTransform="translate(9.2592593)" />
    <linearGradient
       inkscape:collect="always"
       xlink:href="#linearGradient53095"
       id="linearGradient53097"
       x1="715.20856"
       y1="332.12833"
       x2="715.20856"
       y2="78.729736"
       gradientUnits="userSpaceOnUse"
       gradientTransform="translate(9.2592593)" />
    <linearGradient
       inkscape:collect="always"
       xlink:href="#linearGradient55061"
       id="linearGradient55063"
       x1="510.20511"
       y1="335.94827"
       x2="510.20511"
       y2="5.9558616"
       gradientUnits="userSpaceOnUse"
       gradientTransform="translate(9.2592593)" />
    <linearGradient
       inkscape:collect="always"
       xlink:href="#linearGradient56587"
       id="linearGradient56589"
       x1="930.93628"
       y1="420.50894"
       x2="930.93628"
       y2="-32.205936"
       gradientUnits="userSpaceOnUse"
       gradientTransform="translate(9.2592593)" />
  </defs>
  <sodipodi:namedview
     id="namedview4923"
     pagecolor="#505050"
     bordercolor="#eeeeee"
     borderopacity="1"
     inkscape:pageshadow="0"
     inkscape:pageopacity="0"
     inkscape:pagecheckerboard="0"
     showgrid="false"
     fit-margin-top="0"
     fit-margin-left="0"
     fit-margin-right="0"
     fit-margin-bottom="0"
     inkscape:zoom="8"
     inkscape:cx="47.5"
     inkscape:cy="14.9375"
     inkscape:window-width="1920"
     inkscape:window-height="1009"
     inkscape:window-x="-8"
     inkscape:window-y="-8"
     inkscape:window-maximized="1"
     inkscape:current-layer="layer2"
     scale-x="2"
     inkscape:showpageshadow="0"
     inkscape:deskcolor="#d1d1d1" />
  <g
     inkscape:groupmode="layer"
     id="layer5"
     inkscape:label="outline_bottom"
     style="display:inline">
    <path
       id="polygon2-0"
       style="display:inline;fill:#0c0c0c;fill-opacity:1;stroke-width:0.940676"
       d="m 166.0512,38.208881 -79.277234,0.0076 -31.577121,196.002869 89.827925,-46.51238 16.7517,-119.046802 2.14558,-15.285566 z M 161.77647,68.659952 9.3061343,207.31639 96.833027,234.21913 h 41.636163 l 3.29698,-23.39009 3.2586,-23.12229 15.0557,-0.006 -21.20791,15.46492 463.74805,10.92645 520.73929,-41.66802 h 23.9999 24 l 30.7765,-30.4534 -37.5679,-29.50311 h 61.0909 l 15.6808,121.75077 h 41.6379 41.6363 l 41.3032,-26.90197 -59.4622,-94.8488 h 47.2943 L 1397.0542,78.568359 1341.79,38.208104 H 1125.2113 908.63248 l 0.70179,14.269728 h -8.73407 -8.73407 l -0.32348,-7.147791 -0.32348,-7.121937 H 651.43559 411.65019 l -2.37405,30.441842 -13.632,0.0094 H 278.70939 Z m 233.86767,0 1.22997,-15.281866 1.22084,-15.161819 -101.51354,-0.0038 -101.51354,-0.0038 -4.07737,30.441841 102.32683,0.0038 z m 727.71576,103.764928 -984.48734,30.74079 30.07537,31.04239 106.61984,0.006 106.61982,0.006 1.35241,-16.59322 1.34145,-16.46026 7.04537,-0.004 7.0472,-0.006 -2.55864,33.06271 h 134.05014 l -6.94486,154.64356 364.1827,-141.26517 10.38572,-13.37839 h 231.53212 l 27.9096,-26.9029 z M 898.08908,234.21913 523.52066,388.8627 H 714.2773 905.03573 l -3.53639,-78.75688 z M 691.61522,112.46837 h 61.09087 l 0.41481,42.91077 h -30.87533 -30.87532 l 0.12426,-21.57081 z"
       sodipodi:nodetypes="ccccccccccccccccccccccccccccccccccccccccccccccccccccccccccccccccccccccccccccccccc" />
  </g>
  <polygon
     fill="#575757"
     stroke="none"
     fill-opacity="1"
     points="685.1123,378.74921 685.08307,261.3548 685.10925,251.3447 685.14001,371.38339 "
     id="polygon1411"
     transform="translate(29.657828,-32.43219)" />
  <g
     inkscape:groupmode="layer"
     id="layer3"
     inkscape:label="outline_sides"
     style="display:inline">
    <path
       id="polygon117"
       d="m 127.77488,0.04101562 -4.56835,32.20117238 37.71289,38.966796 4.00586,-30.441406 z m 793.5879,0 -13.16993,40.72656238 0.65821,14.269531 13.26172,-39.90625 z m -545.60547,0.0078125 -2.61914,32.19335988 21.75,38.966796 2.29492,-30.433593 z m 313.68164,78.51953088 -0.26172,45.376951 1.5957,33.79492 0.23047,-42.78711 z m 65.28711,0 -2.65039,36.384761 0.38671,42.78711 2.70704,-33.79492 z m 505.43944,0 -35.2714,36.384741 14.6367,121.24219 37.3926,-28.8789 z m -1154.86132,79.562501 -7.005859,49.18555 40.853519,28.8789 6.10937,-46.26172 z m 256.33203,14.23242 -2.8789,34.95313 23.56054,28.8789 2.51172,-32.86719 z"
       style="fill:#242424;fill-opacity:1"
       sodipodi:nodetypes="cccccccccccccccccccccccccccccccccccccccc" />
    <path
       id="polygon85"
       d="m 689.43895,78.568359 1.56445,36.384761 h 61.07227 l 2.65039,-36.384761 z m 505.43945,0 -31.0566,36.384761 h 61.0723 l 35.2714,-36.384761 z m 151.6329,0 -40.8438,36.384761 h 47.2813 l 44.1054,-36.384761 z m -195.6719,63.402341 -28.6133,32.74805 h 47.9375 l 31.9727,-32.74805 z m -1013.35553,16.15039 -32.17969,0.01 39.95703,31.80273 30.06641,-0.01 z m 239.21289,14.23243 -15.06055,0.01 23.19336,30.96484 14.06836,-0.01 z m -245.82617,34.95117 38.68945,28.88086 212.75781,0.01 -23.56054,-28.8789 z M 9.3061343,207.31639 56.0659,236.19529 h 83.08594 l -40.853519,-28.8789 z m 364.6562457,0 22.55274,28.8789 h 133.74609 l -13.04101,-28.8789 z m 536.13282,0 -13.04102,28.8789 H 1128.064 l 29.4668,-28.8789 z m 366.8282,0 -37.3926,28.8789 h 83.0859 l 43.3008,-28.8789 z m -767.12508,163.53125 14.00977,18.65625 h 379.70117 l 14.00977,-18.65625 z"
       style="fill:#141414;fill-opacity:1"
       sodipodi:nodetypes="cccccccccccccccccccccccccccccccccccccccccccccccccccccccccccc" />
  </g>
  <g
     inkscape:groupmode="layer"
     id="layer1"
     inkscape:label="outline_top"
     style="display:inline">
    <path
       id="polygon2"
       style="fill:url(#linearGradient56589);fill-opacity:1"
       d="M 127.77488,0.04101562 43.052228,0.04882812 9.3061343,207.31641 105.30418,158.13086 123.20653,32.242188 125.49949,16.078125 Z M 123.20653,32.242188 9.3061343,207.31641 H 53.802228 98.298321 l 3.523439,-24.73438 3.48242,-24.45117 16.08985,-0.006 16.08984,-0.004 456.84766,27.91238 556.50787,-44.06277 h 25.6484 25.6485 l -3.6563,-31.93945 -3.6016,-31.462891 h 65.2871 l 16.7579,128.748051 h 44.498 44.4961 l -9.8496,-65.34571 -9.5566,-63.402341 h 50.5429 L 1390.6031,38.933364 1384.273,0.04078562 H 1152.8179 921.36278 l 0.75,15.08984338 h -9.33399 -9.33398 L 903.0991,7.5720356 902.7534,0.04078562 H 646.49949 390.24364 l -2.53711,32.19140638 -14.56836,0.0098 h -124.9668 z m 249.93164,0 1.31445,-16.160157 1.30469,-16.03320288 -108.48633,-0.0039063 -108.48633,-0.0039063 -4.8684,44.69096248 111.09778,8.755433 z M 1150.8394,141.9707 137.48387,158.12109 l -6.61328,49.1836 113.94336,0.006 113.94336,0.006 1.44531,-17.54688 1.43359,-17.40625 7.5293,-0.004 7.53125,-0.006 -2.73438,34.96289 H 517.2202 L 509.79832,370.8477 898.99613,221.46373 910.0952,207.31645 h 247.4356 l -3.3711,-32.92188 z M 910.0952,207.31641 509.79832,370.84766 H 713.6577 917.51903 l -3.7793,-83.28321 z M 689.43895,78.568359 h 65.28711 l 0.44336,45.376951 h -32.9961 -32.99609 l 0.13281,-22.81054 z"
       sodipodi:nodetypes="ccccccccccccccccccccccccccccccccccccccccccccccccccccccccccccccccccccccccccccccccc" />
    <path
       id="polygon159"
       d="m 125.40379,1.8808594 -4.32812,30.3222656 h 1.04101 1.04102 l 2.16406,-15.216797 2.14844,-15.1054686 h -1.03321 z m 248.12109,0 -2.50195,30.3222656 h 1.04102 1.04101 l 1.24805,-15.216797 1.24023,-15.1054686 h -1.03515 z m 527.25977,0 0.59961,13.2109376 h 1.03711 1.03711 l -0.30469,-6.6171876 -0.30273,-6.59375 h -1.03321 z m 481.76955,0 12.1211,74.7011716 h -25.2617 -25.2617 l 19.3262,128.632809 h -42.3086 -42.3086 l 0.2714,2.07227 h 43.4141 43.4141 l -9.8516,-65.34961 -9.5566,-63.404297 h 25.2734 25.2734 l -6.2968,-38.679687 -6.1817,-37.9726566 h -1.0332 z M 687.34324,76.582031 687.04637,123.91211 h 1.06445 1.06446 l 0.13281,-22.8125 0.1289,-22.566407 h 32.64649 32.64453 l -0.01,-0.976562 -0.01,-0.97461 h -33.68164 z m 505.23836,0 7.2285,63.345699 h -25.6426 -25.6426 l 6.6641,65.28711 H 1031.5171 907.8452 l 7.33594,163.38086 H 713.6577 512.13621 l -0.0996,2.23242 h 202.74805 202.74805 l -3.78125,-83.2871 -3.64258,-80.25391 h 123.73052 123.7324 l -3.3789,-32.92383 -3.3262,-32.42578 h 25.6563 25.6543 l -3.6602,-31.93945 -3.6074,-31.464847 h 32.6445 32.6465 l -0.1269,-0.976562 -0.127,-0.97461 h -33.6836 z M 103.39793,156.06445 96.384259,205.21484 H 54.075665 11.767072 l -0.337891,2.07227 h 43.416016 43.414062 l 3.517581,-24.74023 3.47851,-24.45704 h 16.09571 16.0957 l 0.13672,-1.01367 0.13476,-1.01172 h -17.16015 z m 256.23047,14.21875 -2.88281,34.93164 H 245.00731 133.26903 l -0.2793,2.07227 h 112.87891 112.87695 l 1.43945,-17.55273 1.42774,-17.41211 h 7.5371 7.53516 l 0.0801,-1.01954 0.0801,-1.01953 h -8.60742 z m 16.64453,34.93164 -0.16211,2.07227 h 70.54883 70.54883 l 0.0469,-1.03711 0.0469,-1.03516 h -70.51563 z"
       style="fill:#0e0e0e;fill-opacity:1" />
    <path
       id="polygon255"
       d="M 43.001447,0 9.2592593,207.28711 h 1.0859377 1.083984 L 11.599103,206.25 11.767072,205.21484 28.661603,101.09961 44.763165,1.8808594 H 86.116681 127.4702 L 127.60496,0.93945312 127.73778,0 H 85.370587 Z m 115.738283,0 -4.33789,32.203125 h -15.6211 -15.62304 -1.04102 -1.04101 l -0.27344,1.910156 h 17.71289 17.71289 l 2.17187,-16.179687 2.1543,-16.0527346 H 268.07371 375.59324 L 375.66942,0.93945312 375.74754,0 h -108.5039 z m 231.47461,0 -2.5293,32.203125 h -7.28906 -7.29102 -1.04101 -1.04102 l -0.1582,1.910156 h 9.37695 9.37891 l 1.26172,-16.179687 1.25195,-16.0527346 H 647.49168 902.85106 L 902.80809,0.93945312 902.76512,0 H 646.48973 Z m 531.15039,0 0.76172,15.091797 0.70117,-6.6171876 0.70117,-6.59375 h 230.54501 230.5468 L 1384.4683,0.93945312 1384.3159,0 h -231.4746 z m 2.16406,1.8808594 -1.40234,13.2109376 h -9.33399 -9.33398 -1.03711 -1.03711 l 0.0859,1.894531 h 11.41211 11.41406 l -0.38477,-7.5664061 z m -168.82031,74.7011716 0.0195,1.951172 0.44336,45.378907 h -32.99805 -32.99804 -1.06446 -1.06445 l -0.0117,1.99609 h 35.14258 35.14453 l -0.25586,-24.80859 -0.25195,-24.517579 h -1.05274 z m 505.23832,0 0.2539,1.951172 16.7598,128.753907 h 1.0859 1.0859 l -0.1367,-1.03711 -0.1347,-1.03516 -8.5313,-65.28711 -8.2793,-63.345699 h -1.0508 z m -1122.22856,79.482419 -0.27148,2.02539 -6.62695,49.19727 h 1.08593 1.08399 l 0.14062,-1.03711 0.13868,-1.03516 3.3164,-24.71679 3.2793,-24.4336 h -1.07422 z m 239.12696,14.21875 -0.16016,2.03907 -2.74414,34.96484 h 1.08594 1.08398 l 0.082,-1.03711 0.0801,-1.03516 1.36719,-17.53711 1.35742,-17.39453 h -1.07617 z m 140.45703,34.93164 -0.0937,2.07227 -7.42383,163.54101 h 1.125 1.12695 l 0.0508,-1.11523 0.0488,-1.11719 3.73633,-83.20508 3.59961,-80.17578 h -1.08594 z"
       style="fill:#4e4e4e;fill-opacity:1" />
    <path
       id="polygon363"
       d="m 1359.1374,21.698372 -135.7565,0.06641 -2.8509,2.837891 4.2054,34.08789 3.5495,2.958985 46.6494,0.173828 16.9051,124.236324 3.6387,3.18164 19.1,-0.0156 19.0998,-0.0156 1.4168,-1.57031 1.4146,-1.57031 -9.0318,-63.0332 -8.7717,-61.212894 23.2956,-0.09766 23.2917,-0.0957 1.3895,-1.445313 1.3876,-1.445312 -2.7092,-17.109375 -2.6859,-16.970704 -1.7698,-1.480468 z m -330.1713,0.0098 -86.21748,0.05664 -3.06429,2.837891 0.52204,12.195312 -13.18287,0.201172 -3.08563,2.859375 7.47733,146.201168 3.37092,3.18164 19.10186,-0.0156 19.10186,-0.0156 1.5467,-1.57031 1.5467,-1.57031 -1.30218,-22.83399 -1.29052,-22.59179 20.16144,0.004 20.16152,0.006 3.4176,45.40625 3.4349,3.18164 19.0941,-0.0254 19.096,-0.0254 1.5506,-1.53515 1.5505,-1.53321 -6.0606,-74.36718 -5.853,-71.837894 -81.36589,21.896484 h 19.79273 19.79266 l 2.6142,37.076172 h -19.96746 -19.96933 l -1.13722,-18.61914 -1.12558,-18.457032 40.78869,-10.978515 40.5772,-10.917969 -1.669,-1.492187 -1.669,-1.492188 -6.6312,-0.06641 -6.6331,-0.06836 -0.5764,-6.078125 -0.5764,-6.060547 -1.6612,-1.476562 z m -924.41317,0.0098 -36.717181,0.04687 -3.654251,2.847657 -25.24597,161.447261 2.711093,3.18164 19.10186,-0.0254 19.101858,-0.0254 1.89796,-1.53125 1.89796,-1.52734 5.777328,-39.03906 5.672532,-38.33594 h 6.301301 l -1.612682,12.65625 2.713032,3.10742 13.51278,0.13867 -1.59328,12.74414 2.8159,3.06836 10.36502,-0.01 10.36504,-0.01 1.85915,-1.5 1.85526,-1.5 0.93539,-6.40625 0.93346,-6.38672 6.74959,-0.10351 6.74767,-0.10547 1.84556,-1.48828 1.84167,-1.48828 0.90435,-6.36719 0.9024,-6.34961 h 6.29937 l -9.75955,77.30273 2.80036,3.18164 19.09992,-0.0254 19.09992,-0.0254 1.85333,-1.54101 1.85138,-1.53907 9.71103,-82.26757 9.34813,-79.183597 -1.36815,-1.470703 -1.36818,-1.470703 -36.71523,0.04687 -3.57467,2.847657 -3.68338,27.533203 -13.28765,0.201171 -3.62515,2.88086 -1.79122,12.376953 -13.31677,0.203125 -3.65231,2.902344 -1.85526,12.488281 h -3.12057 -3.12058 l 0.75298,-6.224609 0.74909,-6.205078 -1.35069,-1.515626 -1.3507,-1.513671 -6.66615,-0.06641 -6.66615,-0.06836 0.7685,-6.167969 0.76656,-6.15039 -1.34098,-1.503907 -1.33906,-1.501953 -6.64675,-0.06836 -6.64868,-0.06641 1.91543,-13.789063 1.8999,-13.697266 -1.32741,-1.470703 z m 181.58312,0 -36.7133,0.04687 -3.53197,2.847657 -18.16065,161.447261 2.85082,3.18164 19.09992,-0.0254 19.09992,-0.0254 1.82809,-1.54101 1.82616,-1.53907 8.39914,-82.26757 8.08477,-79.183597 -1.39144,-1.470703 z m 66.03076,0 -36.71329,0.04687 -3.48541,2.847657 -15.5854,161.447261 2.90128,3.18164 19.09992,-0.0254 19.09991,-0.0254 1.80676,-1.53125 1.80674,-1.52734 3.44078,-39.03906 3.38062,-38.33594 h 3.14968 3.14969 l -0.85389,12.65625 2.89739,3.10742 6.76124,0.0703 6.76125,0.0684 -0.80926,12.73242 2.92069,3.13086 6.78647,0.0703 6.7884,0.0703 -0.76657,12.82812 2.94398,3.1543 6.81752,0.0703 6.81945,0.0723 -1.92317,29.27148 2.97696,3.18164 19.09797,-0.0254 19.09992,-0.0254 1.766,-1.54101 1.76405,-1.53907 5.11945,-82.26757 4.92732,-79.183597 -1.45162,-1.470703 -1.44966,-1.470703 -36.7133,0.04687 -3.42524,2.828125 -5.55028,74.296875 h -3.14192 -3.14191 l 0.35707,-6.271484 0.35515,-6.251953 -1.45161,-1.525391 -1.45162,-1.525391 -6.69526,-0.06836 -6.69525,-0.06836 0.37843,-6.214844 0.37647,-6.195312 -1.44189,-1.515626 -1.43997,-1.513671 -6.67003,-0.06641 -6.67197,-0.06836 0.39978,-6.167969 0.39783,-6.15039 -1.43026,-1.503907 -1.42832,-1.501953 -6.65062,-0.06836 -6.65256,-0.06641 1.09064,-13.789063 1.08095,-13.697266 -1.41473,-1.470703 z m 247.61389,0 -119.24932,0.04687 -3.37092,2.847657 -9.14824,161.447261 3.02936,3.18164 62.0369,-0.0254 62.03689,-0.0254 1.70583,-1.53515 1.7039,-1.53321 0.45993,-18.16797 0.45411,-18.01367 -1.54282,-1.57226 -1.54088,-1.57227 -40.82942,-0.0606 -40.82748,-0.0605 0.51428,-11.04492 0.51232,-10.99024 32.12753,-0.0937 32.12559,-0.0957 1.68449,-1.48828 1.68449,-1.48828 0.51427,-17.62696 0.51039,-17.480465 -1.51952,-1.515625 -1.5176,-1.515625 -31.84032,-0.06836 -31.83642,-0.06836 0.49874,-10.720703 0.49682,-10.664063 39.98523,-0.0918 39.98329,-0.0918 1.65344,-1.445313 1.65149,-1.445312 0.43278,-17.109375 0.42694,-16.970704 -1.504,-1.470703 z m 594.2729,0 -119.2434,0.04687 -2.9615,2.847657 14.0348,161.447261 3.4854,3.18164 19.0941,-0.0254 19.0961,-0.0254 1.5156,-1.53515 1.5138,-1.53321 -2.9207,-30.95703 -2.8799,-30.51562 23.6488,-0.0996 23.6488,-0.0996 1.4768,-1.48828 1.4769,-1.48828 -1.9368,-17.63086 -1.9193,-17.486331 -1.766,-1.496094 -1.7641,-1.496093 -23.447,-0.08203 -23.4469,-0.08398 -1.0402,-10.720703 -1.0344,-10.664063 39.9716,-0.0918 39.9698,-0.0918 1.4457,-1.445313 1.4459,-1.445312 -2.026,-17.109375 -2.0087,-16.970704 -1.7155,-1.470703 z m -445.75658,0.02734 -102.68778,0.01953 -3.26806,2.837891 -0.35513,12.195312 -13.19645,0.201172 -3.29136,2.84961 -2.67227,129.865233 3.13027,3.17773 6.84276,0.0723 6.84273,0.0703 -0.0194,13.03516 3.2312,3.14062 53.42039,-0.01 53.42232,-0.01 1.64956,-1.53515 1.64955,-1.53321 -0.19406,-18.16797 -0.19213,-18.01367 -1.59716,-1.57226 -1.59909,-1.57227 -40.83137,-0.0606 -40.82942,-0.0605 0.45994,-42.85742 0.45024,-42.00391 39.98135,-0.0918 39.97941,-0.0918 1.60104,-1.445313 1.60103,-1.445312 -0.17271,-17.113282 -0.17078,-16.974609 -1.59327,-1.453125 z m 132.06152,0 -102.68777,0.01953 -3.16716,2.847657 2.44523,161.447261 3.25642,3.18164 19.10186,-0.0156 19.10185,-0.0156 1.60493,-1.57031 1.60103,-1.57031 -0.48321,-22.83399 -0.4774,-22.59179 h 3.17297 3.17295 l 0.56669,12.84765 3.26999,3.1543 6.81946,0.0703 6.8214,0.0723 30.67593,-3.42774 30.62739,-3.41992 -1.66119,-1.57226 -1.65926,-1.57227 -6.80587,-0.0703 -6.80394,-0.0703 -0.37454,-6.4043 -0.37455,-6.38477 -1.64762,-1.56054 -1.64762,-1.5586 -6.7884,-0.0703 -6.79036,-0.0703 -0.11061,-2.97461 -0.11062,-2.97266 6.74183,-0.10351 6.74184,-0.10547 1.58939,-1.48828 1.58746,-1.48828 -0.18825,-6.35743 -0.1863,-6.33984 6.70496,-0.10352 6.7069,-0.10351 1.57582,-1.47852 1.5758,-1.47656 -1.52923,-33.10742 -1.504,-32.589844 -42.56826,21.896484 0.74134,21.384766 h -19.89365 -19.89365 l -0.26976,-10.720703 -0.26973,-10.664063 41.18455,-10.978515 40.96916,-10.917969 -1.61656,-1.492187 -1.61463,-1.492188 -6.63122,-0.06641 -6.62928,-0.06836 -0.34738,-6.082031 -0.34738,-6.064453 -1.63985,-1.453125 z m 20.4642,18.171875 -82.15371,21.896484 h 19.79272 19.79273 l 21.33944,-10.978515 z m 4.95836,110.023443 -61.30332,6.84765 0.62102,12.92578 3.29522,3.17773 6.84663,0.0723 6.84662,0.0703 0.6773,13.02538 3.31851,3.18164 19.09604,-0.0254 19.09604,-0.0254 1.59522,-1.53515 1.59522,-1.53321 -0.84613,-18.16797 z m -333.22196,74.77539 -29.85501,0.0742 -3.50095,3.11328 -4.72937,119.89062 3.19043,3.44726 15.36222,-0.0391 15.36222,-0.0391 1.77958,-1.65234 1.77764,-1.6504 0.44635,-11.44336 0.44247,-11.38281 4.8497,-0.13086 4.84775,-0.13086 1.76987,-1.62695 1.76794,-1.62695 0.23093,-4.7793 0.229,-4.76952 4.81865,-0.13478 4.8167,-0.1367 1.76017,-1.61719 1.7563,-1.61719 0.21735,-4.77344 0.21542,-4.76173 h 1.05765 1.05572 l 0.0271,9.47071 3.20402,3.375 4.84,0.0918 4.83805,0.0937 0.066,9.49219 3.22538,3.39649 4.87492,0.0879 4.87686,0.0879 -0.21542,22.76953 3.26613,3.44726 15.36028,-0.0391 15.36028,-0.0391 1.75629,-1.64649 1.75434,-1.64648 0.61519,-60.76172 0.59774,-59.13281 -1.60105,-1.63086 -1.60104,-1.62891 -29.86084,0.0527 -3.37481,3.19726 -1.09064,47.32032 -1.07901,-0.006 -1.079,-0.006 -0.033,-4.66993 -0.035,-4.6582 -1.59327,-1.6543 -1.59522,-1.65234 -4.78372,-0.0898 -4.78565,-0.0918 -0.0369,-4.62109 -0.0369,-4.61133 -1.57581,-1.64844 -1.57193,-1.64844 -16.97296,0.0527 -3.47571,3.18164 -0.44635,9.28516 -9.52861,0.26562 -3.49318,3.16797 -0.47934,9.39258 -2.13473,0.0117 0.6443,-23.78321 0.63654,-23.52734 -1.56805,-1.63086 z m 142.86708,0 -29.85114,0.0742 -3.40003,3.11328 -0.78596,119.89062 3.30688,3.44726 15.36027,-0.0391 15.36027,-0.0391 1.73496,-1.64649 1.73493,-1.64648 -0.11062,-60.76172 -0.1106,-59.13281 -1.62045,-1.63086 z m 51.95131,0 -29.85114,0.0742 -3.36122,3.11328 0.65013,119.89062 18.4265,-43.0586 18.07719,-42.23437 -0.33379,-17.33008 -0.32796,-17.19531 -1.6418,-1.63086 z m 3.94146,37.78516 -36.50369,85.29297 18.65162,-18.01173 18.50414,-17.86524 1.08677,0.004 1.08871,0.006 0.38424,9.52539 3.34763,3.39649 4.85551,0.0937 4.85747,0.0918 0.43665,9.55078 3.36702,3.41602 4.87104,0.0918 4.87299,0.0937 0.46576,9.5957 3.38838,3.45898 15.36028,-0.0391 15.35833,-0.0391 1.69226,-1.65234 1.6903,-1.6504 -0.46575,-15.17382 -0.46382,-15.07032 -1.70389,-1.69336 -1.70389,-1.6914 -4.84194,-0.0918 -4.83999,-0.0937 -0.25811,-4.73633 -0.25616,-4.72461 -1.68449,-1.68358 -1.68254,-1.68165 -4.83029,-0.0918 -4.83223,-0.0918 -0.24259,-4.70899 -0.24064,-4.69726 -1.67478,-1.67383 -1.67284,-1.67188 -4.83806,-0.0918 -4.83999,-0.0918 -0.0194,-1.03125 -0.0194,-1.03125 4.79923,-0.12891 4.79925,-0.12695 1.6709,-1.59961 1.6709,-1.59766 -0.01,-4.69726 -0.0116,-4.68555 4.76819,-0.13281 4.76819,-0.13281 1.66314,-1.58985 1.66119,-1.58984 -0.0252,-4.66798 -0.0253,-4.6582 4.74879,-0.13282 4.74877,-0.13281 1.66509,-1.58008 1.6612,-1.58007 -0.44636,-14.5625 -0.44635,-14.4668 -1.66314,-1.63086 -1.66314,-1.62891 -29.8492,0.0742 -3.30493,3.13281 -0.004,9.17969 -9.45875,0.26172 -3.32433,3.13281 -0.031,9.24219 -9.48787,0.26367 -3.3418,3.14844 -0.0466,9.33984 z m 0.65207,49.41601 -37.15576,35.87696 3.34568,3.44726 15.36027,-0.0391 15.36029,-0.0391 1.71554,-1.65233 1.71553,-1.6504 -0.17077,-18.04492 z m 112.29789,-87.20117 -29.84919,0.0742 -3.27778,3.11328 3.87743,119.89063 3.43884,3.44726 15.36028,-0.0391 15.35834,-0.0391 1.6709,-1.64649 1.67091,-1.64648 -2.47434,-60.76172 -2.40835,-59.13281 -1.68449,-1.63086 z"
       style="fill:#1a1a1a;fill-opacity:1;stroke-width:0.996803" />
  </g>
  <g
     inkscape:groupmode="layer"
     id="layer4"
     inkscape:label="text_sides"
     style="display:inline">
    <path
       id="polygon1047"
       d="m 510.35496,45.603516 4.61914,13.55664 h 83.21875 l -2.68359,-13.55664 z m 153.27539,0 1.13672,13.55664 h 83.21875 l 0.79883,-13.55664 z m 153.27539,0 -2.3457,13.55664 h 47.85156 l 3.45704,-13.55664 z m 153.2754,0 -5.82618,13.55664 h 47.84964 l 6.9395,-13.55664 z m 153.27546,0 -9.3086,13.55664 h 83.2187 l 11.2442,-13.55664 z m 117.0859,0 -11.9687,13.55664 h 49.9296 l 13.1309,-13.55664 z m 87.2813,0 -13.9512,13.55664 h 49.9297 l 15.1152,-13.55664 z M 77.415509,93.119141 92.030743,105.73438 H 106.75535 L 92.485821,93.119141 Z m 68.898441,0 13.0332,12.615239 h 14.72461 L 161.38621,93.119141 Z m 189.47461,0 8.67968,12.615239 h 14.72461 l -8.33398,-12.615239 z m 551.19531,0 -3.98242,12.615239 h 16.83008 l 4.37695,-12.615239 z M 90.114728,109.19922 104.49363,121.49219 h 16.89063 l -13.97852,-12.29297 z m 36.744142,0 13.5293,12.29297 h 16.89257 l -13.13281,-12.29297 z m 222.61523,0 8.39844,12.29297 h 16.89063 l -7.99805,-12.29297 z m 157.77735,0 4.75976,12.29297 h 67.56836 l -3.16601,-12.29297 z m 363.10351,0 -3.61328,12.29297 h 16.89258 l 4.01172,-12.29297 z m 259.35944,0 -9.5938,12.29297 h 50.6758 l 10.7891,-12.29297 z m -1024.63092,16.20312 14.08398,11.96289 h 19.07618 l -13.63282,-11.96289 z m 260.35351,0 8.0586,11.96289 h 16.95508 l -7.65821,-11.96289 z m 453.44727,0 -2.43555,11.96289 h 14.83594 l 2.78711,-11.96289 z m 156.21289,0 -6.05078,11.96289 h 48.74613 l 7.2051,-11.96289 z m -593.57617,16.32813 7.71484,11.62891 h 17.01953 l -7.31054,-11.62891 z m 453.01367,0 -2.80859,11.62891 h 17.01953 l 3.21289,-11.62891 z m -209.42383,16.45508 2.06446,11.28906 h 17.08398 l -1.6582,-11.28906 z m 227.38086,0 -3.23633,11.28906 h 17.08203 l 3.64649,-11.28906 z M 27.772931,174.76758 43.825665,185.71094 H 80.265118 L 65.085431,174.76758 Z m 122.910159,0 13.17773,10.94336 h 36.4375 l -12.30273,-10.94336 z m 70.23437,0 11.53321,10.94336 h 36.43945 l -10.66016,-10.94336 z m 70.23438,0 9.89062,10.94336 h 36.4375 l -9.01562,-10.94336 z m 105.35351,0 7.42188,10.94336 h 36.43945 l -6.54883,-10.94336 z m 70.23438,0 5.7793,10.94336 h 122.17773 l -2.85156,-10.94336 z m 175.58594,0 1.66992,10.94336 h 105.02929 l 0.84766,-10.94336 z m 140.4707,0 -1.61914,10.94336 h 36.43945 l 2.49219,-10.94336 z m 87.79297,0 -3.67383,10.94336 h 36.43945 l 4.54688,-10.94336 z m 70.23437,0 -5.3164,10.94336 h 36.4375 l 6.1914,-10.94336 z m 87.79299,0 -7.3711,10.94336 h 36.4375 l 8.2461,-10.94336 z m 70.2344,0 -9.0156,10.94336 h 36.4394 l 9.8887,-10.94336 z m 210.7051,0 -13.9473,10.94336 h 36.4375 l 14.8223,-10.94336 z m -474.27546,71.91992 -13.3789,0.01 -2.57422,9.41211 13.05859,-0.01 z m -13.06836,12.94531 -13.41796,0.01 -2.26954,9.13086 13.09766,-0.0117 z m -13.14648,13.02149 -13.46875,0.0215 -1.96094,8.84375 13.14649,-0.0215 z m -215.85547,13.10937 2.89063,8.55664 h 10.96679 l -2.62109,-8.55664 z m -0.38086,13.16602 -13.52929,0.0117 3.23437,8.26367 13.20117,-0.01 z m 11.3125,0.0117 2.63672,8.26367 13.21094,0.0117 -2.30859,-8.26368 z m 164.84375,0 -1.33008,8.26367 h 11.00782 l 1.60351,-8.26367 z m -190.09961,13.24609 -13.58984,0.01 3.58203,7.96875 13.26172,-0.01 z m 38.51758,0 2.32422,7.96875 13.25,0.0215 -1.99414,-7.96875 z m 163.08594,0.01 -1.61328,7.96875 13.25195,0.0117 1.93945,-7.96875 z m 13.83203,13.33789 -1.95312,7.66796 13.29101,0.0117 2.2832,-7.66992 z m -259.54492,13.41601 4.34375,7.36524 h 28.90429 l -3.62304,-7.36524 z m 95.70703,0 2.01953,7.36524 h 28.9043 l -1.29883,-7.36524 z m 54.68945,0 0.69336,7.36524 h 28.9043 l 0.0273,-7.36524 z m 54.69141,0 -0.63672,7.36524 h 28.9043 l 1.35547,-7.36524 z m 68.37305,0 -2.29688,7.36524 h 28.89453 l 3.01367,-7.36524 z m 54.67773,0 -3.62305,7.36524 h 28.9043 l 4.34375,-7.36524 z"
       style="fill:#3f3f3f;fill-opacity:1" />
    <path
       id="polygon1247"
       d="m 89.575665,12.589844 -4.689453,31.05664 14.277344,13.595704 4.480474,-30.457032 z m 118.269535,0 -19.84961,162.177736 12.30273,10.94336 18.94922,-158.925784 z m 67.58203,0 -17.19727,162.177736 10.66016,10.94336 16.41602,-158.925784 z m 67.58398,0 -2.78711,31.05664 8.48047,13.595704 2.66211,-30.457032 z m 101.37305,0 -10.56641,162.177736 6.54883,10.94336 10.08789,-158.925784 z m 152.06055,0 -0.93555,33.013672 2.68359,13.55664 0.89453,-32.375 z m 183.74023,0 -1.5,14.195312 2.49219,158.925784 1.61914,-10.94336 z m 168.95703,0 -5.30859,14.195312 0.8418,15.171875 5.34765,-13.896484 z m 135.16413,0 -8.3555,14.195312 13.8848,158.925784 9.0156,-10.94336 z m 152.0605,0 -11.7832,14.195312 3.9903,32.375 11.9687,-13.55664 z m -303.30275,15.470703 -4.96485,13.896484 7.40821,143.753909 5.3164,-10.94336 z M 101.9077,43.646484 99.601056,59.351562 113.59715,72.636719 115.80028,57.242188 Z m 255.33984,0 -1.34375,15.705078 8.1543,13.285157 1.2832,-15.394531 z m 153.10742,1.957032 -1.44336,29.570312 4.6836,12.97461 1.3789,-28.988282 z m 153.27539,0 -1.1289,94.080074 1.1875,11.66993 1.07812,-92.193364 z m 202.23829,0 -3.45704,13.55664 1.03125,28.988282 3.50782,-12.97461 z m 153.27546,0 -6.9395,13.55664 3.1875,44.613284 7.0899,-12.656252 z m 272.4902,0 -13.1309,13.55664 17.1055,126.550784 13.9473,-10.94336 z m -1174.94731,13.748046 -2.25976,15.822266 13.70898,12.97461 2.15821,-15.511719 z m 256.30274,0 -1.28906,15.822266 7.82226,12.97461 1.23242,-15.511719 z m 15.86133,15.822266 -1.23438,15.94336 7.48633,12.656252 1.17969,-15.625002 z m 188.66797,0 -1.10547,34.025392 3.16601,12.29297 1.05274,-33.343752 z M 77.415509,93.119141 65.085431,174.76758 80.265118,185.71094 92.030743,105.73438 Z m 68.898441,0 -2.16602,16.080079 13.13281,12.29297 2.06641,-15.75781 z m 189.47461,0 -7.32422,81.648439 9.01562,10.94336 6.98828,-79.97656 z m -208.92969,16.080079 -2.24805,16.20312 13.63282,11.96289 2.14453,-15.87304 z m 380.39258,0 -1.48828,30.48437 4.82812,11.66993 1.41992,-29.86133 z m 326.82031,16.20312 -2.78711,11.96289 0.44141,15.99415 2.80859,-11.62891 z m 190.92584,0 -7.2051,11.96289 3.4531,48.34571 7.3711,-10.94336 z m -432.15826,14.28125 -0.99414,35.08399 2.85156,10.94336 0.94922,-34.35742 z m 259.11914,2.04688 -3.21289,11.62891 0.50976,16.11523 3.23633,-11.28906 z m 18.02539,16.45508 -3.64649,11.28906 0.57813,16.23633 3.67383,-10.94336 z m -301.56445,60.72656 -1.72657,51.57617 3.51368,8.89258 1.64648,-50.45898 z m 93.13086,0 -1.44141,120.03906 1.29883,7.36524 1.37304,-117.39453 z m 77.60742,0 -0.60156,10.00977 0.67187,117.39453 0.63672,-7.36524 z m 66.52344,0 -2.17579,10.00977 0.2461,12.50585 2.18945,-9.73437 z m 53.21679,0 -3.43359,10.00977 3.82812,117.39453 3.62305,-7.36524 z m -66.28906,12.79101 -1.87305,9.73633 0.21094,12.56641 1.88281,-9.45703 z m -184.91016,12.84571 -0.29101,12.91992 2.5332,9.17773 0.27734,-12.64062 z m 171.77149,0.01 -1.56641,9.45899 0.16406,12.64062 1.57422,-9.17773 z m -158.66211,12.92188 -0.25391,13.00781 2.22656,8.89258 0.24024,-12.72266 z m -27.59766,28.2832 -0.38086,13.16602 2.90625,8.26562 0.36524,-12.875 z m -13.91015,13.17774 -0.41407,13.24609 3.25391,7.96875 0.39453,-12.95117 z m 200.96679,0 -1.60351,8.26367 0.21289,12.96094 1.61328,-7.96875 z m -214.9707,13.25586 -0.89453,26.7539 3.62304,7.36524 0.85352,-26.15039 z m 228.77148,0.0117 -1.93945,7.96875 0.24024,13.02539 1.95312,-7.66796 z m 13.875,13.33594 -2.2832,7.66992 0.28125,13.10157 2.29688,-7.36524 z"
       style="fill:#575757;fill-opacity:1" />
  </g>
  <g
     inkscape:groupmode="layer"
     id="layer2"
     inkscape:label="text_top"
     style="display:inline">
    <path
       id="polygon991"
       d="M 53.673321,12.589844 27.772931,174.76758 h 37.3125 L 77.415509,93.119141 h 15.070312 l -2.371093,16.080079 h 17.291012 l -2.32226,16.20312 h 19.52734 l 2.24805,-16.20312 h 17.28906 l 2.16602,-16.080079 h 15.07226 l -10.70312,81.648439 h 37.3125 L 207.8452,12.589844 h -35.90235 l -4.07226,31.05664 H 150.8491 l -2.12304,15.705078 h -17.08789 l -2.20313,15.822266 h -15.00781 l 2.25976,-15.822266 H 99.601056 L 101.9077,43.646484 H 84.886212 l 4.689453,-31.05664 z m 185.851559,0 -18.60742,162.177736 h 37.3125 L 275.42723,12.589844 Z m 67.58204,0 -15.95508,162.177736 h 37.3125 l 7.32422,-81.648439 h 15.07031 l -1.38477,16.080079 h 17.29102 l -1.32813,16.20312 h 17.35547 l -1.27148,16.32813 h 17.42383 l -2.43946,33.03711 h 37.3125 L 444.38426,12.589844 h -35.90234 l -5.80078,78.527344 h -15.06446 l 1.23438,-15.94336 h -17.15039 l 1.28906,-15.822266 h -17.08594 l 1.34375,-15.705078 H 340.2241 l 2.78711,-31.05664 z m 168.95703,0 -9.32422,162.177736 H 591.8452 l 0.99414,-35.08399 h -87.07617 l 1.48828,-30.48437 h 69.16211 l 1.10547,-34.025392 H 508.9116 l 1.44336,-29.570312 h 85.1543 l 0.93555,-33.013672 z m 168.95508,0 -0.25586,15.470703 -16.95899,0.0098 -2.69336,130.115233 h 17.49024 l -0.27539,16.58203 h 107.54687 l -0.29492,-35.08399 h -87.07617 l 1.1289,-94.080069 h 85.1543 l -0.2793,-33.013672 z m 135.16601,0 2.61133,162.177736 h 37.3125 l -1.22461,-49.36524 h 15.1875 l 0.46289,16.32813 h 17.42383 l 0.5332,16.45508 h 17.49219 l 0.60547,16.58203 h 37.3125 l -1.58789,-35.08399 h -17.41407 l -0.67187,-16.3125 h -17.34766 l -0.52539,-14.17187 h 17.29102 l -0.66211,-16.080079 h 17.22461 l -2.94336,-65.058594 h -16.95703 l -0.63672,-15.470703 z m 168.95703,0 0.88086,15.470703 h -16.95898 l 7.75976,146.707033 h 37.3125 l -3.03906,-49.36524 h 49.90045 l 3.6191,49.36524 h 37.3125 L 1053.896,28.060547 h -16.959 l -1.205,-15.470703 z m 135.16413,0 7.1328,79.527344 7.2617,80.964842 0.1504,1.68555 h 37.3125 l -6.4492,-65.56836 h 51.8711 l -3.7637,-34.025392 h -51.4551 l -2.9101,-29.570312 h 85.1543 l -3.9239,-33.013672 z m 152.0605,0 4.1758,33.013672 h 51.0918 l 17.9219,129.164064 h 37.3125 L 1327.8238,45.603516 h 51.0937 l -5.2734,-33.013672 z M 816.90574,45.603516 h 48.9629 l 1.08203,29.570312 h -49.31055 z m 153.2754,0 h 48.96296 l 3.3379,45.513672 h -49.49813 z m -430.5879,173.308594 -4.8164,120.03906 h 29.625 l 0.89453,-26.7539 13.58984,-0.01 0.41407,-13.24609 13.52929,-0.0117 0.38086,-13.16602 h 11.23633 l -0.30469,13.17774 13.53907,0.0117 -0.27735,13.23438 13.58008,0.0215 -0.5,26.74219 h 29.625 l 1.44141,-120.03906 H 632.7241 l -0.96289,51.57617 h -11.20703 l 0.25391,-13.00781 -13.40039,-0.0117 0.29101,-12.91992 h -15.60156 l -0.37305,12.93164 -13.40039,0.01 -0.42383,12.99805 h -11.20703 l 1.72657,-51.57617 z m 146.34766,0 -0.76758,120.03906 h 29.625 l -0.0312,-120.03906 z m 53.2168,0 0.70703,120.03906 h 29.62305 l -0.50196,-40.00976 h 11.28125 l 0.22266,13.25586 13.57812,0.0117 0.25391,13.32618 13.62109,0.01 0.29493,13.40625 h 29.61132 l -0.80664,-28.96875 -13.58398,-0.01 -0.33789,-13.23243 -13.53321,-0.0117 -0.29687,-13.14258 -13.49023,-0.0215 -0.20313,-10.88867 13.46875,-0.0215 -0.27148,-13.01172 13.41796,-0.01 -0.31054,-12.93554 13.3789,-0.01 -0.77343,-27.77539 h -28.82617 l 0.25976,12.78125 -13.33203,0.01 0.2207,12.84571 -13.35937,0.01 0.17187,12.92188 h -11.17383 l -0.48437,-38.56836 z m 119.74023,0 4.01758,120.03906 h 29.625 L 887.7241,218.91211 Z"
       style="fill:url(#linearGradient48875);fill-opacity:1" />
    <path
       id="polygon1845"
       d="m 49.603009,44.609375 -2.503906,15.710937 h 8.544922 8.544922 l 1.222656,-7.86914 1.21875,-7.841797 h -8.513672 z m 817.298831,0 0.57812,15.710937 h 8.54492 8.54688 l -0.32227,-7.86914 -0.32031,-7.841797 h -8.51367 z m 17.66992,15.710937 0.64648,15.822266 -17.14453,0.01953 0.57617,15.941407 h -17.21679 -17.21485 l 0.4375,16.072265 h -8.63281 -8.63281 l -0.20313,-8.05078 -0.20117,-8.021485 -34.43164,0.0098 1.32422,81.601555 h 17.55469 17.55469 l -0.60938,-24.81445 -0.60156,-24.52734 26.0293,-0.006 26.03124,-0.004 -0.29882,-8.10351 -0.29688,-8.07227 8.63672,-0.0117 8.63867,-0.01 -0.31836,-8.04102 -0.3164,-8.011715 8.60547,-0.0039 8.60351,-0.0059 -0.72265,-15.951172 -0.7168,-15.832032 h -8.54102 z m -14.73438,64.042968 -17.35937,0.004 -34.70117,0.006 h 8.67187 8.67188 l 0.48828,16.31054 17.39844,0.0195 0.55859,16.42774 8.73242,0.01 8.73438,0.01 0.61914,16.56445 h 17.55469 17.55664 l -0.7461,-16.56836 -0.74023,-16.44336 -8.70313,-0.01 -8.70507,-0.01 -0.34571,-8.16601 -0.34375,-8.13477 -8.67187,-0.01 z m -703.0996,-64.042968 -2.07227,15.832032 h 8.57813 8.57812 l 1.00586,-7.931641 1.00195,-7.900391 h -8.54687 z m 15.08398,15.832032 -2.03125,15.941406 -17.21094,0.0098 -10.67773,81.61132 h 17.55469 17.55468 l 6.04688,-49.34179 5.91015,-48.220702 h -8.57421 z m -19.24219,15.951172 1.04492,-7.990235 1.04102,-7.960937 h -17.15039 -17.15039 l -2.22852,15.951172 h -17.2207 -17.220704 l -2.365235,16.062504 17.273439,0.0215 -2.29492,16.18555 h 8.66601 8.66602 l 1.13867,-8.10938 1.13281,-8.07617 8.63477,-0.0117 8.63281,-0.01 1.0957,-8.04102 1.0918,-8.011719 8.60742,-0.0039 z m -68.884764,0 1.175781,-7.990235 1.171875,-7.960937 H 87.464337 78.886212 L 76.47215,92.103516 h 8.611328 z m -17.222656,0 h -8.609375 -8.611328 l -2.496094,16.062504 -17.277344,0.01 -10.460938,65.53906 h 17.550782 17.548828 l 6.236328,-41.19726 z m -17.220703,0 1.242187,-7.990235 1.236328,-7.960937 h -8.578125 -8.578125 l -2.542969,15.951172 h 8.611328 z m 192.953123,-31.783204 -1.76758,15.822266 -17.14648,0.0098 -11.16992,97.562492 h 17.55469 17.55664 l 6.10742,-57.45507 5.94531,-55.939454 h -8.53906 z m 68.36524,0 -1.50977,15.822266 -17.14648,0.0098 -9.57227,97.562492 h 17.54883 17.54883 l 2.97656,-33.01562 2.92969,-32.51172 -8.64258,-0.0117 -8.64258,-0.01 0.75586,-8.04688 0.75391,-8.01562 h 25.83789 8.59375 l -1.35742,16.0625 8.63281,0.01 8.63086,0.0117 26.54492,-8.05859 26.44531,-8.02539 h -25.82617 -25.82617 l 0.64648,-7.990235 0.64649,-7.960937 h -17.15039 -17.15039 l 0.70117,-7.931641 0.70117,-7.900391 h -8.53516 z m 100.32812,31.783204 -52.99023,16.083984 -1.30078,16.17578 8.66406,0.01 8.66601,0.01 -1.24414,16.30078 8.70313,0.004 8.70508,0.006 -2.43164,33.02148 h 17.55664 17.55468 l 3.22657,-49.34179 3.15429,-48.220706 h -8.57226 -8.57227 z m 70.57422,-31.783204 -0.8418,15.832032 h 8.57813 8.57812 l 0.38868,-7.931641 0.38867,-7.900391 h -8.54688 z m 16.31445,15.832032 -0.79296,15.941406 -17.21094,0.0098 -0.85352,16.0625 -17.27734,0.01 -3.76172,65.53906 h 61.44141 61.44335 l 0.46876,-16.56836 0.46484,-16.44336 -43.54492,-0.004 -43.54297,-0.006 0.79883,-16.31641 0.79492,-16.18945 34.57422,-0.006 34.57422,-0.006 0.52539,-16.07226 0.52148,-15.951172 h -17.15039 -17.15039 l -0.67383,15.951172 h -8.59961 -8.59961 l 0.34766,-7.990235 0.34766,-7.960937 h -8.57227 z m -18.0039,15.951172 0.42383,-7.990235 0.42382,-7.960937 h -8.57812 -8.57813 l -0.91211,15.951172 h 8.60938 z m 155.25195,-15.951172 -0.26172,15.951172 h 8.61133 8.61133 l 0.0977,-7.990235 0.0977,-7.960937 h -8.57812 z m -0.26172,15.951172 h -8.60547 -8.60351 l -1.3418,65.027344 8.73828,0.01 8.73828,0.01 -0.25976,16.56445 h 52.66406 52.66602 l -0.14258,-16.56836 -0.13867,-16.44336 -43.54493,-0.004 -43.54492,-0.006 0.20117,-16.31641 0.19922,-16.18945 -8.63867,-0.0117 -8.63867,-0.01 0.12695,-8.04688 z m 291.91406,-15.951172 5.18555,97.562496 h 17.55469 17.55469 l -1.52149,-24.81445 -1.5039,-24.52734 h 26.02929 26.02938 l 3.6308,49.34179 h 17.5547 17.5566 l -4.0351,-49.34179 -3.9434,-48.220706 h -8.5722 -8.5723 l 1.2266,15.951172 h -25.8262 -25.82622 l 1.0293,16.072264 h -8.63086 -8.63282 l -0.50586,-8.04687 -0.50195,-8.015629 -8.59961,-0.0098 -8.60156,-0.0098 -0.4668,-7.986328 -0.46679,-7.955078 h -8.57227 z m 154.40431,0 8.7754,97.562496 h 17.5488 17.5489 l -3.2344,-33.02148 -3.1855,-32.51758 h 25.9316 25.9297 l -1.7735,-16.072264 -1.7617,-15.951172 h -25.7285 -25.7285 l 1.543,15.951172 h -8.5996 -8.5997 l -0.7617,-7.990235 -0.7597,-7.960937 h -8.5723 z m 208.0996,15.951172 11.334,81.611324 h 17.5489 17.5507 l -4.8554,-33.01562 -4.7793,-32.51172 -8.6387,-0.0117 -8.6406,-0.01 -1.1621,-8.04688 -1.1582,-8.015624 h -8.5997 z m -746.64844,166.447264 -0.47851,13.01563 h 6.73242 6.73437 l 0.21875,-6.51758 0.21875,-6.49805 h -6.71289 z m 12.98828,13.01563 -0.45312,13.09375 h -6.74219 -6.74219 l 0.23633,-6.55664 0.23438,-6.53711 h -6.72852 -6.72656 l -2.65234,66.24414 13.66406,0.006 13.66406,0.006 0.45703,-13.40625 0.45508,-13.32422 h 0.002 l 6.78711,-0.0117 6.78711,-0.01 0.21485,-6.625 0.21484,-6.60351 6.76172,-0.0117 6.76172,-0.01 0.19336,-6.58593 0.19336,-6.56446 6.74609,-0.006 6.74805,-0.004 0.32226,-13.09375 0.31836,-13.01563 h -6.70703 -6.70703 l -0.38281,13.01563 h -13.46094 z m 40.07618,13.09375 -0.32227,13.16015 6.76758,0.01 6.76758,0.0117 -0.26172,13.22851 6.7832,0.01 6.78125,0.0117 -0.48047,26.71875 13.66992,0.006 13.66797,0.006 0.32813,-26.73633 0.32422,-26.41602 -13.5,-0.006 -13.5,-0.004 0.11328,-6.55664 0.11523,-6.53711 h -6.72656 -6.72852 l -0.30273,13.08203 z m 27.2539,-13.09375 h 6.73438 6.73242 l 0.0996,-6.51758 0.0996,-6.49805 h -6.71289 -6.71289 z m 228.48633,-13.01563 2.67383,79.25977 h 13.66406 13.66406 l -1.32422,-33.36524 -1.30468,-32.86914 -6.72852,-0.01 -6.72851,-0.0117 -0.25,-6.51172 -0.25,-6.49219 h -6.70703 z m -120.74414,13.01563 0.39453,66.24414 6.57227,-33.3711 6.47656,-32.87304 h -6.72266 z m 13.44336,0 -13.04883,66.24414 13.66992,0.006 13.66797,0.006 -0.24609,-20.08594 -0.24414,-19.90625 20.32617,-0.006 20.32617,-0.004 -0.1543,-6.58593 -0.15039,-6.56446 -6.74218,-0.01 -6.74219,-0.0117 -0.13281,-6.54492 -0.13086,-6.52735 -13.45508,-0.004 -13.45508,-0.006 0.13867,13.09375 h -6.74218 -6.74219 l -0.0723,-6.55664 z m 54.45117,26.2539 -13.55859,0.004 -27.09375,0.006 h 6.76758 6.76757 l 0.22657,13.24023 13.56445,0.0215 0.26758,13.30859 6.80273,0.01 6.80274,0.0117 0.31054,13.38867 13.65821,0.006 13.6582,0.006 -0.36328,-13.40625 -0.36328,-13.32422 -6.78711,-0.0117 -6.78906,-0.01 -0.17383,-6.625 -0.17383,-6.60351 -6.76172,-0.0122 z m -121.85156,-13.16015 -0.32617,53.15039 13.66992,0.006 13.66797,0.006 V 317.74219 297.8418 l -6.76758,-0.0117 -6.76758,-0.01 0.01,-6.58984 0.008,-6.57031 h -6.74609 z"
       style="fill:url(#linearGradient53097);fill-opacity:1" />
    <path
       id="polygon1453"
       d="m 54.561993,13.539062 -2.46875,15.478516 h 8.482422 8.480469 l 1.205078,-7.753906 1.199219,-7.72461 h -8.449219 z m 14.494141,15.478516 -2.421875,15.59375 h 8.513672 8.513672 l 1.18164,-7.810547 1.175782,-7.783203 H 77.538556 Z M 308.06004,13.539062 306.54246,29.017578 h 8.48047 8.48242 l 0.72852,-7.753906 0.72656,-7.72461 h -8.44922 z m 15.44531,15.478516 -1.46679,15.59375 h 8.51367 8.51367 l 0.70117,-7.810547 0.70117,-7.783203 h -8.48242 z m 15.56055,15.59375 -1.41406,15.712891 h 8.54492 8.54688 l 0.67578,-7.871094 0.67187,-7.841797 h -8.51172 z m 15.67774,15.712891 -1.35938,15.830078 h 8.57812 8.57813 l 0.64844,-7.929688 0.64453,-7.90039 h -8.54492 z m 15.79687,15.830078 -1.30469,15.951172 h 8.61133 8.60938 l 0.62109,-7.990235 0.61914,-7.960937 h -8.57812 z M 322.03856,44.611328 h -8.51368 -8.51367 l -3.0957,31.542969 h 8.57813 8.57812 l 1.48828,-15.830078 z m 104.32031,-31.072266 -1.07422,15.478516 h 8.48047 8.48242 l 0.50586,-7.753906 0.50586,-7.72461 h -8.44922 z m 50.70117,0 -0.88672,15.478516 h 8.48242 8.48047 l 0.41211,-7.753906 0.41211,-7.72461 h -8.45117 z m 16.07617,15.478516 -0.82812,15.59375 h 8.51367 8.51367 l 0.38281,-7.810547 0.38086,-7.783203 h -8.48046 z m -0.82812,15.59375 h -8.51367 -8.51368 l -1.80468,31.542969 h 8.57812 8.57813 l 0.83984,-15.830078 z m -1.67578,31.542969 -0.84961,15.951172 h 8.61133 8.61132 l 0.39063,-7.990235 0.39062,-7.960937 h -8.57812 z m -0.84961,15.951172 h -8.60938 -8.61133 l -0.91992,16.074221 h 8.64453 8.64258 l 0.42774,-8.05274 z m 37.97656,-78.566407 -0.69531,15.478516 h 8.48047 8.48242 l 0.3164,-7.753906 0.31641,-7.72461 h -8.45117 z m 118.29883,0 -0.25195,15.478516 h 8.48046 8.48243 l 0.0957,-7.753906 0.0937,-7.72461 h -8.44917 z m 16.71094,15.478516 -0.19141,15.59375 h 8.51367 8.51367 l 0.0625,-7.810547 0.0645,-7.783203 h -8.48243 z m -0.19141,15.59375 h -8.51367 -8.51367 l -0.25586,15.712891 h 8.54492 8.54492 l 0.0977,-7.871094 z m -17.2832,15.712891 h -8.54688 -8.54492 l -0.65039,31.78125 h 8.61133 8.60937 l 0.26172,-15.951172 z m -0.52149,31.78125 -0.26172,16.074221 h 8.64258 8.64453 l 0.0977,-8.05274 0.0996,-8.021481 h -8.61136 z m 51.98633,-78.566407 -0.0644,15.478516 h 8.48242 8.48047 v -7.753906 -7.72461 h -8.44922 z m 16.89844,15.478516 v 15.59375 h 8.51367 8.51367 l -0.0312,-7.810547 -0.0312,-7.783203 h -8.48242 z m 67.59961,-15.478516 0.2539,15.478516 h 8.48243 8.48046 l -0.1582,-7.753906 -0.1582,-7.72461 h -8.44922 z m 17.21679,15.478516 0.31836,15.59375 h 8.51368 8.51367 l -0.19141,-7.810547 -0.19141,-7.783203 h -8.48046 z m 16.96289,0 h 8.48243 8.48242 l -0.22266,-7.753906 -0.2207,-7.72461 h -8.45117 -8.44922 z m -16.64453,15.59375 h -8.51172 -8.51367 l 0.25586,15.712891 h 8.54688 8.54492 l -0.16211,-7.871094 z m 168.36524,-31.072266 0.94922,15.478516 h 8.48046 8.48243 l -0.50782,-7.753906 -0.5039,-7.72461 h -8.45117 z m 0.94922,15.478516 h -8.48243 -8.48046 l 0.89257,15.59375 h 8.51368 8.51171 l -0.47851,-7.810547 z m 32.84958,-15.478516 1.0762,15.478516 h 8.4825 8.4804 l -0.5703,-7.753906 -0.5683,-7.72461 h -8.4493 z m 118.3008,0 1.5176,15.478516 h 8.4824 8.4805 l -0.791,-7.753906 -0.791,-7.72461 h -8.4492 z m 18.4805,15.478516 1.5957,15.59375 h 8.5117 8.5137 l -0.8301,-7.810547 -0.8261,-7.783203 h -8.4825 z m 32.2188,-15.478516 1.7089,15.478516 h 8.4805 8.4824 l -0.8886,-7.753906 -0.8828,-7.72461 h -8.4512 z m 84.5,0 2.0234,15.478516 h 8.4824 8.4824 l -1.0468,-7.753906 -1.043,-7.72461 h -8.4492 z m 2.0234,15.478516 h -8.4805 -8.4824 l 1.9766,15.59375 h 8.5136 8.5137 l -1.0215,-7.810547 z m 82.4746,-15.478516 2.3418,15.478516 h 8.4824 8.4805 l -1.2031,-7.753906 -1.2012,-7.72461 h -8.4492 z m 2.3418,15.478516 h -8.4805 -8.4824 l 2.2949,15.59375 h 8.5137 8.5137 l -1.1817,-7.810547 z m -14.668,15.59375 h -8.5136 -8.5137 l 2.25,15.712891 h 8.5449 8.5449 l -1.1582,-7.871094 z m -14.7773,15.712891 h -8.5469 -8.5449 l 4.418,31.78125 h 8.6113 8.6094 l 2.3008,16.074221 h 8.6425 8.6446 l -2.3672,-16.074221 -2.3477,-15.951172 h -8.5781 -8.5762 l -1.1367,-7.929688 z m -2.25,-15.712891 -1.1172,-7.810547 -1.1133,-7.783203 h -8.4824 -8.4805 l 2.168,15.59375 h 8.5137 z m -1138.76567,-15.59375 -2.03906,15.59375 h 8.51367 8.51172 l 0.99023,-7.810547 0.98633,-7.783203 h -8.48047 z m 14.98633,15.59375 -3.99609,31.542969 h 8.57617 8.57812 l 1.94336,-15.830078 1.92578,-15.712891 h -8.51367 z m -3.99609,31.542969 h -8.57813 -8.57812 l -2.08789,15.951172 h 8.61132 8.60938 l 1.01367,-7.990235 z m -17.15625,0 1.03711,-7.929688 1.0332,-7.90039 h -8.54492 -8.54688 l -2.13476,15.830078 h 8.57812 z m 74.01953,-47.136719 -1.78516,15.59375 h 8.51367 8.51368 l 0.86132,-7.810547 0.85938,-7.783203 h -8.48242 z m 15.24219,15.59375 -1.73438,15.712891 h 8.54492 8.54492 l 0.83789,-7.871094 0.83204,-7.841797 h -8.51172 z m -1.73438,15.712891 h -8.54688 -8.54492 l -1.8125,15.830078 h 8.57813 8.57812 l 0.875,-7.929688 z m 308.79297,-31.306641 -0.57422,15.59375 h 8.51367 8.51367 l 0.25586,-7.810547 0.25391,-7.783203 h -8.48047 z m 288.375,0 0.50976,15.59375 h 8.51368 8.51367 l -0.28906,-7.810547 -0.28516,-7.783203 h -8.48242 z m 237.48437,0 1.4024,15.59375 h 8.5137 8.5136 l -0.7343,-7.810547 -0.7325,-7.783203 h -8.4824 z m 18.4297,15.59375 1.4766,15.712891 h 8.5469 8.5449 l -0.7715,-7.871094 -0.7695,-7.841797 h -8.5137 z m 1.4766,15.712891 h -8.5449 -8.545 l 1.4239,15.830078 h 8.5781 8.5781 l -0.7461,-7.929688 z m 1.4902,15.830078 1.5,15.951172 h 8.6094 8.6113 l -0.7851,-7.990235 -0.7813,-7.960937 h -8.5781 z M 407.17332,44.611328 406.01707,60.324219 h 8.54492 8.54688 l 0.54687,-7.871094 0.54493,-7.841797 h -8.51368 z m 15.93555,15.712891 -1.10156,15.830078 h 8.57812 8.57813 l 0.51953,-7.929688 0.51562,-7.90039 h -8.54492 z m -1.10156,15.830078 h -8.57813 -8.57812 l -1.17383,15.951172 h 8.61133 8.61132 l 0.55469,-7.990235 z m 598.13679,-31.542969 1.1562,15.712891 h 8.5449 8.5469 l -0.6133,-7.871094 -0.6074,-7.841797 h -8.5137 z m 18.248,15.712891 1.2285,15.830078 h 8.5782 8.5781 l -0.6485,-7.929688 -0.6464,-7.90039 h -8.545 z m 1.2285,15.830078 h -8.5781 -8.5781 l 1.1738,15.951172 h 8.6113 8.6114 l -0.6211,-7.990235 z M 47.101056,60.324219 44.577618,76.154297 h 8.578125 8.578125 l 1.232422,-7.929688 1.226563,-7.90039 h -8.544922 z m 14.632812,15.830078 -2.478515,15.951172 h 8.609375 8.611328 l 1.208984,-7.990235 1.205078,-7.960937 h -8.578125 z m 17.15625,0 h 8.576172 8.578125 l 1.167969,-7.929688 1.162109,-7.90039 H 89.829571 81.28465 Z M 59.255353,92.105469 H 50.644025 42.03465 l -2.564453,16.074221 h 8.644531 8.642578 l 1.251953,-8.05274 z m 876.587887,-31.78125 0.8418,15.830078 h 8.57813 8.57812 l -0.45312,-7.929688 -0.45313,-7.90039 h -8.54492 z m 17.99805,15.830078 0.91406,15.951172 h 8.60938 8.61133 l -0.49024,-7.990235 -0.48828,-7.960937 h -8.57812 z m 18.13477,15.951172 0.98437,16.074221 h 8.64453 8.64258 l -0.52539,-8.05274 -0.52539,-8.021481 h -8.61133 z M 113.20067,76.154297 110.91942,92.105469 h 8.60937 8.61133 l 1.10937,-7.990235 1.10743,-7.960937 h -8.57813 z m 411.74218,0 -0.71679,15.951172 h 8.61132 8.60938 l 0.32617,-7.990235 0.32617,-7.960937 h -8.57812 z m 257.33985,0 0.25976,15.951172 h 8.61133 8.61133 l -0.16406,-7.990235 -0.16211,-7.960937 h -8.57813 z m 51.46679,0 0.45704,15.951172 h 17.2207 17.2207 l -0.29297,-7.990235 -0.29297,-7.960937 h -17.15625 z m 0.45704,15.951172 h -8.61133 -8.60938 l 0.39453,16.074221 h 8.64258 8.64453 l -0.23242,-8.05274 z m -516.63477,0 -1.51172,16.074221 h 8.64453 8.64258 l 0.72461,-8.05274 0.7207,-8.021481 h -8.60937 z m 236.39258,127.859371 -0.4707,12.78711 h 6.67382 6.67188 l 0.2168,-6.40234 0.21484,-6.38477 h -6.6543 z m -0.4707,12.78711 h -6.67383 -6.67383 l -0.51367,12.86328 h 6.69336 6.69336 l 0.23828,-6.4414 z m -0.47461,12.86328 -0.47461,12.9375 h 6.71289 6.71289 l 0.21875,-6.47851 0.21679,-6.45899 h -6.69336 z m -0.47461,12.9375 h -6.71485 -6.71289 l -0.51758,13.01563 h 6.73243 6.73242 l 0.24023,-6.51758 z m -0.48047,13.01563 -0.48047,13.09375 h 6.75195 6.75391 l 0.2207,-6.55664 0.2207,-6.53711 h -6.73242 z m 95.05469,-51.60352 -0.19532,12.78711 h 6.67383 6.67188 l 0.0801,-6.40234 0.0781,-6.38477 h -6.6543 z m 53.23242,0 -0.0391,12.78711 h 6.67383 6.67188 v -6.40234 -6.38477 h -6.65235 z m 39.92382,0 0.0781,12.78711 h 6.67383 6.67383 l -0.0606,-6.40234 -0.0586,-6.38477 h -6.65235 z m 80.16016,12.78711 0.31641,12.86328 h 6.69336 6.69336 l -0.17774,-6.4414 -0.17773,-6.42188 h -6.67383 z m 53.38867,0 0.47266,12.86328 h -6.69141 -6.69336 l 0.43555,12.9375 h 6.71289 6.71289 l 0.47852,13.01563 h 6.73437 6.73242 l -0.77734,-19.49414 -0.76953,-19.32227 h -6.67383 z m -186.9375,12.86328 -0.0801,12.9375 h 6.71289 6.71289 l 0.0195,-6.47851 0.0195,-6.45899 h -6.69141 z m 13.34571,12.9375 -0.0391,13.01563 -0.041,13.09375 -0.041,13.16992 h 6.77344 6.77344 v -19.72656 -19.55274 h -6.71289 z m -0.0801,26.10938 0.0195,-6.55664 0.0215,-6.53711 h -6.73437 -6.73242 l -0.0801,13.09375 h 6.7539 z m 53.66601,-39.04688 0.11914,12.9375 h 6.71289 6.7129 l -0.0781,-6.47851 -0.0801,-6.45899 h -6.69336 z m 0.11914,12.9375 h -6.71289 -6.71289 l 0.0801,13.01563 h 6.73242 6.73243 l -0.0586,-6.51758 z m 0.11915,13.01563 0.12109,13.09375 h 6.75391 6.75195 l -0.0801,-6.55664 -0.0801,-6.53711 h -6.73242 z m 39.92187,-25.95313 0.23828,12.9375 h 6.71289 6.71289 l -0.13867,-6.47851 -0.13867,-6.45899 h -6.69336 z m 0.23828,12.9375 h -6.71289 -6.71289 l 0.19922,13.01563 h 6.73242 6.73242 l -0.11914,-6.51758 z m -214.82031,0 -0.39844,13.01563 h 6.73242 6.73242 l 0.17969,-6.51758 0.17969,-6.49805 h -6.71289 z m 26.5332,13.01563 -0.32031,13.09375 h 6.75195 6.75391 l 0.14062,-6.55664 0.14063,-6.53711 h -6.73438 z m 40.39844,0 -0.20117,13.09375 h 6.7539 6.75196 l 0.082,-6.55664 0.0801,-6.53711 h -6.73438 z"
       style="fill:url(#linearGradient51461);fill-opacity:1" />
    <path
       id="polygon2229"
       d="m 54.554181,13.533203 -2.46875,15.478516 h 8.482422 8.482422 l 1.203125,-7.753907 1.201171,-7.724609 h -8.449218 z m 14.496094,15.478516 -2.423828,15.59375 h 8.513671 8.513672 l 1.181641,-7.8125 1.177734,-7.78125 h -8.482422 z m -2.423828,15.59375 h -8.513672 -8.513672 l -0.15625,0.978515 h 7.984375 7.982422 l -2.292969,14.734375 h -8.009766 -8.011718 l -2.525391,15.830079 h 8.578125 8.578125 L 64.18504,60.318359 Z M 61.726056,76.148438 59.24754,92.099609 h 8.611328 8.609375 l 1.208985,-7.990234 1.205078,-7.960937 h -8.578125 z m 17.15625,0 h 8.041015 8.042969 L 92.614728,92.099609 H 93.151837 93.6909 L 96.038556,76.148438 98.368634,60.318359 H 89.823712 81.276837 Z M 93.6909,92.099609 93.542462,93.101562 h 9.152348 9.15039 l 0.0723,-0.501953 0.0703,-0.5 h 7.53515 8.60938 l 1.04297,-7.492187 1.0371,-7.464844 h 1.07227 17.16016 l 0.0664,-0.498047 0.0684,-0.496093 h 7.50586 8.57813 l 0.97265,-7.435547 0.96875,-7.410157 h 8.54688 8.54883 l -1.88086,14.845704 h 8.57812 8.57617 l 1.94336,-15.830079 1.92578,-15.71289 h -8.51367 -8.51172 l -1.99218,15.71289 h -17.0918 -17.0918 l -2.13476,15.830079 h -17.15631 -17.15625 l -2.28321,15.951171 h -8.61132 z m 92.12695,-47.49414 0.98829,-7.8125 0.98632,-7.78125 h -8.48047 -8.48242 l -2.03906,15.59375 h 8.51367 z m -3.99804,31.542969 h -8.57813 -8.57812 l -2.08789,15.951171 h 8.61132 8.60938 l 1.01367,-7.990234 z M 59.24754,92.099609 h -8.609375 -8.611328 l -2.5625,16.074221 h 8.642578 8.644532 l 1.25,-8.05274 z m 248.8086,-78.566406 -1.51954,15.478516 h 8.48243 8.48242 l 0.72851,-7.753907 0.72657,-7.724609 h -8.45118 z m 15.44531,15.478516 -1.4668,15.59375 h 8.51367 8.51367 l 0.70118,-7.8125 0.70117,-7.78125 h -8.48242 z m 15.56054,15.59375 -1.41406,15.71289 h 8.54492 8.54688 l 0.67578,-7.871093 0.67383,-7.841797 h -8.51367 z m 15.67774,15.71289 -1.35938,15.830079 h -8.57812 -8.57813 l 0.71289,-7.929688 0.71094,-7.900391 h -8.54492 -8.54687 l 0.74023,-7.871093 0.73828,-7.841797 h -8.51367 -8.51367 l -3.09571,31.542969 h 8.57813 8.57812 l 0.69922,-7.435547 0.69727,-7.410157 h 8.01367 8.01367 l -1.42969,15.839844 h 9.65235 9.65234 l 0.043,-0.498047 0.043,-0.496093 h 7.50586 8.57812 l 0.64844,-7.929688 0.64649,-7.900391 h -8.54688 z m 15.79687,15.830079 -1.30468,15.951171 h 8.61132 8.60938 l 0.62109,-7.990234 0.61914,-7.960937 h -8.57812 z m 55.82032,-62.615235 -1.07618,15.478516 h 8.48243 8.48047 l 0.50781,-7.753907 0.50586,-7.724609 h -8.45117 z m 50.69922,0 -0.88477,15.478516 h 8.48047 8.48242 l 0.41211,-7.753907 0.41016,-7.724609 h -8.44922 z m 16.07812,15.478516 -0.82812,15.59375 h 8.51367 8.51367 l 0.38281,-7.8125 0.38086,-7.78125 h -8.48047 z m -0.82812,15.59375 h -8.51368 -8.51367 l -1.80664,31.542969 h 8.57813 8.57812 l 0.39648,-7.435547 0.39258,-7.410157 h 8.54883 8.54688 l 0.0254,-0.492187 0.0234,-0.492188 h -8.54492 -8.54687 l 0.41797,-7.871093 z m -1.67774,31.542969 -0.84766,15.951171 h 8.61133 8.61133 l 0.39063,-7.990234 0.39062,-7.960937 h -8.57812 z m -0.84766,15.951171 h -8.60937 -8.61133 l -0.91992,16.074221 h 8.64258 8.64453 l 0.42773,-8.05274 z m 37.97657,-78.566406 -0.69532,15.478516 h 8.48047 8.48242 l 0.31641,-7.753907 0.31641,-7.724609 h -8.45117 z m 118.30078,0 -0.25391,15.478516 h 8.48242 8.48243 l 0.0937,-7.753907 0.0957,-7.724609 h -8.45117 z m 16.71094,15.478516 -0.19141,15.59375 h 8.51367 8.51367 l 0.0625,-7.8125 0.0645,-7.78125 h -8.48243 z m -0.19141,15.59375 h -8.51367 -8.51367 l -0.25782,15.71289 h 8.54688 8.54492 l 0.0957,-7.871093 z m -17.28516,15.71289 h -8.54492 -8.54687 l -0.64844,31.78125 h 8.60937 8.61133 l 0.12305,-7.492187 0.12109,-7.464844 h 8.58008 8.58008 l 0.006,-0.498047 0.008,-0.496093 h -8.57812 -8.57813 l -1.32031,14.951171 h -7.5332 -7.53321 l 0.30274,-14.951171 0.29882,-14.845704 h 7.48047 7.47852 l -0.49414,29.796875 0.66015,-7.488281 0.66016,-7.46289 0.12891,-7.929688 z m -0.51953,31.78125 -0.26172,16.074221 h 8.64258 8.64258 l 0.0996,-8.05274 0.0977,-8.021481 h -8.60941 z m 51.98633,-78.566406 -0.0644,15.478516 h 8.48242 8.48047 v -7.753907 -7.724609 h -8.44922 z m 16.89844,15.478516 v 15.59375 h 8.51367 8.51367 l -0.0312,-7.8125 -0.0312,-7.78125 h -8.48242 z m 67.60156,-15.478516 0.25195,15.478516 h 8.48243 8.48242 l -0.16016,-7.753907 -0.15625,-7.724609 h -8.45117 z m 17.2168,15.478516 0.31836,15.59375 h 8.51367 8.51367 l -0.19141,-7.8125 -0.1914,-7.78125 h -8.48242 z m 16.96289,0 h 8.48242 8.48047 l -0.2207,-7.753907 -0.22266,-7.724609 h -8.44922 -8.45117 z m -16.64453,15.59375 h -8.51368 -8.51367 l 0.25781,15.71289 h 8.54493 8.54492 l -0.16016,-7.871093 z m 168.36523,-31.072266 0.94922,15.478516 h 8.48242 8.48047 l -0.50586,-7.753907 -0.50586,-7.724609 h -8.44922 z m 0.94922,15.478516 h -8.48047 -8.48242 l 0.89258,15.59375 h 8.51367 8.51367 l -0.47852,-7.8125 z m 32.85153,-15.478516 1.0762,15.478516 h 8.4805 8.4824 l -0.5703,-7.753907 -0.5683,-7.724609 h -8.4512 z m 118.3009,0 1.5175,15.478516 h 8.4825 8.4824 l -0.793,-7.753907 -0.7891,-7.724609 h -8.4511 z m 18.4824,15.478516 1.5937,15.59375 h 8.5137 8.5137 l -0.8301,-7.8125 -0.8281,-7.78125 h -8.4825 z m 32.2168,-15.478516 1.709,15.478516 h 8.4824 8.4824 l -0.8887,-7.753907 -0.8847,-7.724609 h -8.4493 z m 84.5019,0 2.0254,15.478516 h 8.4805 8.4824 l -1.0469,-7.753907 -1.041,-7.724609 h -8.4512 z m 2.0254,15.478516 h -8.4824 -8.4824 l 1.9765,15.59375 h 8.5137 8.5137 l -1.0215,-7.8125 z m 82.4746,-15.478516 2.3418,15.478516 h 8.4805 8.4824 l -1.2051,-7.753907 -1.1992,-7.724609 h -8.4512 z m 2.3418,15.478516 h -8.4824 -8.4805 l 2.295,15.59375 h 8.5136 8.5137 l -1.1816,-7.8125 z m -14.6679,15.59375 h -8.5137 -8.5137 l 2.2481,15.71289 h 8.5449 8.5469 l -1.1583,-7.871093 z m -14.7793,15.71289 h -8.545 -8.5468 l 0.1367,0.984375 h 8.0136 8.0137 l 2.2637,15.839844 h 9.1152 9.1172 l -0.074,-0.498047 -0.072,-0.496093 h -8.5781 -8.5781 l -1.1348,-7.929688 z m -2.2481,-15.71289 -1.1172,-7.8125 -1.1152,-7.78125 h -8.4805 -8.4824 l 2.168,15.59375 h 8.5136 z M 55.456525,14.496094 h 7.396484 7.394531 l -2.107422,13.544922 h -7.419921 -7.419922 l 1.080078,-6.783204 z m 253.560545,0 h 7.39649 7.39453 l -1.27539,13.544922 h -7.41992 -7.41993 l 0.66407,-6.783204 z m 118.32813,0 h 7.39648 7.39453 l -0.88867,13.544922 h -7.41992 -7.41992 l 0.4707,-6.783204 z m 50.71289,0 h 7.39648 7.39453 l -0.72265,13.544922 h -7.41992 -7.41993 l 0.38672,-6.783204 z m 50.71289,0 h 7.39453 7.39648 l -0.55859,13.544922 h -7.41797 -7.41992 l 0.30273,-6.783204 z m 118.32812,0 h 7.39454 7.39648 l -0.16992,13.544922 h -7.41992 -7.41993 l 0.10938,-6.783204 z m 50.71094,0 h 7.39649 7.39453 l -0.002,13.544922 h -7.41988 -7.41992 l 0.0254,-6.783204 z m 84.52149,0 h 7.39453 7.39648 l 0.27344,13.544922 h -7.41992 -7.41992 l -0.11329,-6.783204 z m 33.80859,0 h 7.39453 7.39649 l 0.38281,13.544922 h -7.41992 -7.41993 l -0.16796,-6.783204 z m 152.13476,0 h 7.39649 7.39453 l 0.88281,13.544922 h -7.41992 -7.41992 l -0.41602,-6.783204 z m 33.80862,0 h 7.3965 7.3945 l 0.9942,13.544922 h -7.4199 -7.42 l -0.4727,-6.783204 z m 118.3281,0 h 7.3965 7.3946 l 1.3808,13.544922 h -7.4199 -7.4199 l -0.666,-6.783204 z m 50.7129,0 h 7.3946 7.3964 l 1.5469,13.544922 h -7.4199 -7.4199 l -0.75,-6.783204 z m 84.5196,0 h 7.3964 7.3946 l 1.8242,13.544922 h -7.4199 -7.4199 l -0.8887,-6.783204 z m 84.5195,0 h 7.3965 7.3965 l 2.0996,13.544922 h -7.4199 -7.42 l -1.0273,-6.783204 z m -1101.48051,14.515625 -1.78516,15.59375 h 8.51367 8.51368 l 0.86328,-7.8125 0.85742,-7.78125 h -8.48047 z m 15.24219,15.59375 -1.73438,15.71289 h 8.54492 8.54688 l 0.83594,-7.871093 0.83398,-7.841797 h -8.51367 z m -1.73438,15.71289 h -8.54492 -8.54688 l -1.8125,15.830079 h 8.57813 8.57812 l 0.87696,-7.929688 z m 308.79688,-31.30664 -0.57422,15.59375 h 8.51367 8.51367 l 0.25586,-7.8125 0.25391,-7.78125 h -8.48047 z m 288.37695,0 0.51172,15.59375 h 8.51367 8.51172 l -0.28711,-7.8125 -0.28516,-7.78125 h -8.48242 z m 17.53711,15.59375 0.57812,15.71289 h 8.54688 8.54492 l -0.32031,-7.871093 -0.32227,-7.841797 h -8.51367 z m 17.66992,15.71289 0.64844,15.830079 h -25.73438 -25.73437 l 0.45703,15.951171 h 17.2207 17.2207 l -0.27539,-7.492187 -0.27539,-7.464844 h 18.23438 l -0.32617,-7.935547 -0.32617,-7.904297 h 8.01367 8.01367 l -0.0234,-0.492187 -0.0215,-0.492188 h -8.54492 z m -50.36328,31.78125 h -17.22266 -17.2207 l -0.16406,-7.990234 -0.16211,-7.960937 h -8.57813 -8.57812 l 0.26172,15.951171 h 8.60937 7.53516 l 0.0195,1.001953 h 9.15234 9.15039 l 0.36914,15.072268 h 8.64453 8.64258 l -0.23047,-8.05274 z m 252.64462,-63.08789 1.4023,15.59375 h 8.5137 8.5136 l -0.7343,-7.8125 -0.7325,-7.78125 h -8.4804 z m 18.4296,15.59375 1.4766,15.71289 h 8.5469 8.5449 l -0.7715,-7.871093 -0.7695,-7.841797 h -8.5137 z m 1.4766,15.71289 h -8.5449 -8.5449 l 1.4238,15.830079 h 8.5781 8.5781 l -0.7461,-7.929688 z m 1.4902,15.830079 1.5,15.951171 h 8.6094 8.6113 l -0.7832,-7.990234 -0.7812,-7.960937 h -8.5781 z M 69.958478,29.982422 h 7.423828 7.423828 l -2.068359,13.644531 h -7.447266 -7.447266 l 1.058594,-6.833984 z m 101.804692,0 h 7.42382 7.42383 l -1.73437,13.644531 h -7.44727 -7.44726 l 0.89257,-6.833984 z m 67.86914,0 h 7.42383 7.42382 l -1.50976,13.644531 h -7.44922 -7.44727 l 0.78125,-6.833984 z m 84.83789,0 h 7.42187 7.42383 l -1.23047,13.644531 h -7.44726 -7.44727 l 0.64063,-6.833984 z m 169.67383,0 h 7.42187 7.42383 l -0.67383,13.644531 h -7.44726 -7.44727 l 0.36133,-6.833984 z m 67.86914,0 h 7.42187 7.42383 l -0.44922,13.644531 h -7.44727 -7.44921 l 0.25,-6.833984 z m 101.80273,0 h 7.42383 7.42383 l -0.11524,13.644531 h -7.44726 -7.44727 l 0.082,-6.833984 z m 50.90234,0 h 7.42383 7.42383 l 0.0527,13.644531 h -7.44922 -7.44727 l -0.002,-6.833984 z m 84.8379,0 h 7.42187 7.42383 l 0.33203,13.644531 h -7.44727 -7.44922 l -0.14062,-6.833984 z m 50.90234,0 h 7.42187 7.42383 l 0.49805,13.644531 h -7.44727 -7.44726 l -0.22461,-6.833984 z m 101.80273,0 h 7.42383 7.42383 l 0.83203,13.644531 h -7.44726 -7.44727 l -0.39258,-6.833984 z m 135.74029,0 h 7.4219 7.4238 l 1.2793,13.644531 h -7.4473 -7.4472 l -0.6172,-6.833984 z m 50.9023,0 h 7.4219 7.4238 l 1.4473,13.644531 h -7.4473 -7.4492 l -0.6992,-6.833984 z m 101.8028,0 h 7.4238 7.4238 l 1.7813,13.644531 h -7.4473 -7.4473 l -0.8691,-6.833984 z m 50.9023,0 h 7.4238 7.4219 l 1.9492,13.644531 h -7.4472 -7.4473 l -0.9512,-6.833984 z m 33.9356,0 h 7.4218 7.4239 l 2.0605,13.644531 h -7.4473 -7.4472 l -1.0078,-6.833984 z m -918.37508,14.623047 -1.15625,15.71289 h 8.54687 8.54492 l 0.54688,-7.871093 0.54492,-7.841797 h -8.51367 z m 15.93554,15.71289 -1.09961,15.830079 h 8.57813 8.57812 l 0.51758,-7.929688 0.51758,-7.900391 h -8.54688 z m -1.09961,15.830079 h -8.57812 -8.57813 l -1.17382,15.951171 h 8.60937 8.61133 l 0.55469,-7.990234 z m 598.14265,-31.542969 1.1562,15.71289 h 8.5449 8.545 l -0.6114,-7.871093 -0.6093,-7.841797 h -8.5118 z m 18.2461,15.71289 1.2304,15.830079 h 8.5782 8.5781 l -0.6485,-7.929688 -0.6464,-7.900391 h -8.545 z m 1.2304,15.830079 h -8.5781 -8.5781 l 1.1738,15.951171 h 8.6113 8.6094 l -0.6191,-7.990234 z M 186.75731,45.583984 h 7.45117 7.45117 l -3.63477,29.572266 h -7.5039 -7.50391 l 1.87696,-14.837891 z m 68.125,0 h 7.45117 7.45117 l -1.46484,13.748047 h -7.47657 -7.4746 l 0.75781,-6.884765 z m 51.09375,0 h 7.45117 7.45117 l -2.78906,29.572266 h -7.50391 -7.5039 l 1.45117,-14.837891 z m 34.0625,0 h 7.45117 7.44922 l -1.1836,13.748047 h -7.47461 -7.47656 l 0.61719,-6.884765 z m 68.12304,0 h 7.45118 7.45117 l -0.95899,13.748047 h -7.47461 -7.47656 l 0.50586,-6.884765 z m 68.125,0 h 7.45118 7.45117 l -1.58008,29.572266 h -7.50391 -7.5039 l 0.8457,-14.837891 z m 170.3125,0 h 7.45118 7.45117 l -0.17383,13.748047 h -7.47461 -7.47656 l 0.11133,-6.884765 z m 136.24805,0 h 7.45117 7.45117 l 0.27735,13.748047 h -7.47461 -7.47656 l -0.11329,-6.884765 z m 85.15625,0 h 7.45117 7.45117 l 0.5586,13.748047 h -7.47656 -7.47461 l -0.25586,-6.884765 z m 153.2793,0 h 7.4512 7.4512 l 1.0644,13.748047 h -7.4746 -7.4765 l -0.5079,-6.884765 z m 85.1563,0 h 7.4512 7.4511 l 1.3457,13.748047 h -7.4765 -7.4746 l -0.6504,-6.884765 z m 204.375,0 h 7.4492 7.4512 l 2.0215,13.748047 h -7.4766 -7.4746 l -0.9883,-6.884765 z m -374.96685,14.734375 0.83984,15.830079 h 8.57813 8.57812 l -0.45312,-7.929688 -0.45313,-7.900391 h -8.54492 z m 17.99609,15.830079 0.91407,15.951171 0.10742,-7.492187 0.10937,-7.464844 h 7.50586 7.50782 l 0.85351,13.957031 h -7.5332 -7.53125 l -0.40235,-6.990234 -0.40039,-6.966797 -0.21679,14.957031 h 8.61133 8.60937 l -0.49023,-7.990234 -0.48829,-7.960937 h -8.57812 z m 18.13477,15.951171 0.98633,16.074221 h 8.64258 8.64453 l -0.52735,-8.05274 -0.52539,-8.021481 h -8.60937 z M 48.005353,61.302734 h 7.480468 7.478516 l -2.15625,13.853516 h -7.503906 -7.503906 l 1.105468,-6.9375 z m 34.191406,0 h 7.478516 7.480468 L 95.112775,75.15625 h -7.503907 -7.503906 l 1.046875,-6.9375 z m 68.380861,0 h 7.48047 7.47851 l -1.8164,13.853516 h -7.50391 -7.50391 l 0.93555,-6.9375 z m 85.47852,0 h 7.47851 7.47852 l -1.53125,13.853516 h -7.50586 -7.50391 l 0.79297,-6.9375 z m 119.66796,0 h 7.47852 7.47852 l -1.13477,13.853516 h -7.50586 -7.50391 l 0.59375,-6.9375 z m 68.38086,0 h 7.47852 7.48047 l -0.91016,13.853516 h -7.50391 -7.5039 l 0.48047,-6.9375 z m 512.86328,0 h 7.47852 7.47852 l 0.78906,13.853516 h -7.50391 -7.5039 l -0.36915,-6.9375 z m 102.57226,0 h 7.4786 7.4785 l 1.1308,13.853516 h -7.5058 -7.5039 l -0.5391,-6.9375 z m 51.2852,0 h 7.4805 7.4785 l 1.2988,13.853516 h -7.5039 -7.5039 l -0.625,-6.9375 z m -565.8848,14.845704 -0.7168,15.951171 h 8.61133 8.60938 l 0.32617,-7.990234 0.32617,-7.960937 h -8.57812 z m -462.296875,0.99414 h 7.507812 7.507813 l -2.115235,13.957031 h -7.533203 -7.53125 l 1.083985,-6.990234 z m 51.480465,0 h 15.01563 l -1.94336,13.957031 h -7.5332 -7.53321 l 1,-6.990234 z m 51.48047,0 h 7.50782 7.50781 l -1.77344,13.957031 h -7.53125 -7.5332 l 0.91211,-6.990234 z m 205.92188,0 h 7.50781 7.50781 l -1.08789,13.957031 h -7.5332 -7.53125 l 0.57031,-6.990234 z m 34.32031,0 h 7.50781 7.50782 l -0.97266,13.957031 h -7.5332 -7.53321 l 0.51367,-6.990234 z m 85.80078,0 h 7.50781 7.50782 l -0.6875,13.957031 h -7.53321 -7.5332 l 0.37109,-6.990234 z m 34.32031,0 h 7.50782 7.50781 l -0.57422,13.957031 h -7.5332 -7.53125 l 0.3125,-6.990234 z m 257.4043,0 h 7.50586 7.50781 l 0.28321,13.957031 h -7.53321 -7.5332 l -0.11523,-6.990234 z m 51.48047,0 h 25.74023 6.4336 l 0.50976,13.957031 h -16.14062 -16.14063 l -0.20117,-6.990234 z m 188.76179,0 h 7.5078 7.5058 l 1.0821,13.957031 h -7.5332 -7.5332 l -0.5157,-6.990234 z m 85.8007,0 h 7.5079 7.5058 l 1.3672,13.957031 h -7.5332 -7.5332 l -0.6582,-6.990234 z m 189.629,13.957031 0.1386,1 h 8.6114 8.6113 l 2.2988,16.074221 h 8.6445 8.6426 l -0.074,-0.50391 -0.074,-0.5039 h -8.1016 -8.1015 l -1.1524,-8.048832 -1.1504,-8.017579 h -9.1465 z m -981.47665,1 -1.51171,16.074221 h 8.64453 8.64257 l 0.72461,-8.05274 0.72071,-8.021481 h -8.60938 z M 42.942853,93.101562 h 7.537109 7.535156 l -2.1875,14.064458 h -7.5625 -7.560547 l 1.121094,-7.04493 z m 275.607427,0 h 7.53515 7.53711 l -1.26953,14.064458 h -7.56055 -7.56054 l 0.66015,-7.04493 z m 155.02929,0 h 7.53516 7.53711 l -0.75196,14.064458 h -7.56054 -7.5625 l 0.40234,-7.04493 z m 172.25391,0 h 7.53516 7.5371 l -0.17578,14.064458 h -7.5625 -7.56054 l 0.11328,-7.04493 z m 172.2539,0 h 7.53711 7.53516 l 0.39844,14.064458 h -7.56055 -7.56055 l -0.17578,-7.04493 z m 155.0293,0 h 7.53516 7.53711 l 0.91601,14.064458 h -7.56054 -7.5625 l -0.4336,-7.04493 z m -419.1543,126.859378 -0.4707,12.78711 h 6.67383 6.67383 l 0.21484,-6.4043 0.21485,-6.38281 h -6.6543 z m -0.4707,12.78711 h -6.67383 -6.67382 l -0.51368,12.86133 h 6.69336 6.69336 l 0.23828,-6.43946 z m -0.47461,12.86133 -0.47461,12.93945 h 6.71289 6.71289 l 0.21875,-6.47852 0.2168,-6.46093 h -6.69336 z m -0.47461,12.93945 h -6.71484 -6.71289 l -0.51758,13.01562 h 6.73242 6.73242 l 0.24024,-6.51757 z m -0.48047,13.01562 -0.48046,13.0918 h 6.75195 6.7539 l 0.22071,-6.55469 0.2207,-6.53711 h -6.73242 z m 95.05665,-51.60351 -0.19727,12.78711 h 6.67383 6.67383 l 0.0781,-6.4043 0.0781,-6.38281 h -6.65235 z m 53.23242,0 -0.0391,12.78711 h 6.67188 6.67383 v -6.4043 -6.38281 h -6.65235 z m 39.92382,0 0.0781,12.78711 h 6.67383 6.67383 l -0.0586,-6.4043 -0.0586,-6.38281 h -6.6543 z m -185.24218,1.0625 h 5.54492 5.54687 l -0.36132,10.65625 h -5.56055 -5.56055 l 0.19531,-5.33594 z m 93.17773,0 h 5.54688 5.54687 l -0.13281,10.65625 h -5.56055 -5.56054 l 0.0801,-5.33594 z m 53.2461,0 h 5.54687 5.54492 l -0.002,10.65625 h -5.56055 -5.55859 l 0.0137,-5.33594 z m 39.93359,0 h 5.54687 5.54688 l 0.0937,10.65625 h -5.55859 -5.56055 l -0.0332,-5.33594 z m 79.04687,11.72461 0.31446,12.86133 h 6.69336 6.69336 l -0.17774,-6.43946 -0.17578,-6.42187 h -6.67383 z m 53.38868,0 0.47265,12.86133 h -6.69336 -6.69336 l 0.0371,1.07617 h 7.25196 7.2539 l -0.23828,-6.44336 -0.23828,-6.42578 h 6.11914 6.11914 l -0.0215,-0.53516 -0.0215,-0.5332 h -6.67383 z m -332.61133,1.06836 h 5.5625 5.5625 l -0.39649,10.71875 h -5.57812 -5.57617 l 0.21289,-5.36524 z m 280.36133,0 h 5.5625 5.5625 l 0.29297,10.71875 h -5.57618 -5.57617 l -0.13281,-5.36524 z m -134.69141,11.79297 -0.0781,12.93945 h 6.71289 6.71289 l 0.0195,-6.47852 0.0195,-6.46093 h -6.69336 z m 13.34766,12.93945 -0.0391,13.01562 h -6.73437 -6.73242 l -0.0801,13.0918 h 6.75195 6.75391 l -0.041,13.17187 h 6.77344 6.77344 v -0.55078 -0.54882 h -6.20703 -6.20703 l 0.0176,-6.59375 0.0195,-6.57227 h -6.75195 -6.75195 l 0.0332,-5.46094 0.0312,-5.44922 h 6.73438 6.73632 l 0.0176,-6.52148 0.0176,-6.5 h 6.15625 6.1543 v -0.54102 -0.54101 h -6.71289 z m 53.58593,-12.93945 0.11914,12.93945 h 6.71289 6.71485 l -0.0801,-6.47852 -0.0801,-6.46093 h -6.69336 z m 0.11914,12.93945 h -6.71289 -6.71289 l 0.0801,13.01562 h 6.73242 6.73438 l -0.0605,-6.51757 z m 0.1211,13.01562 0.11914,13.0918 h 6.75391 6.7539 l -0.082,-6.55469 -0.0801,-6.53711 h -6.73242 z m 39.91992,-25.95507 0.23828,12.93945 h 6.71289 6.71485 l -0.14063,-6.47852 -0.13867,-6.46093 h -6.69336 z m 0.23828,12.93945 h -6.71289 -6.71289 l 0.19922,13.01562 h 6.73437 6.73243 l -0.11915,-6.51757 z M 554.09324,246.68555 h 5.58008 5.58008 l -0.36719,10.78125 h -5.59375 -5.59179 l 0.19726,-5.39649 z m 133.9004,0 h 5.58007 5.57813 l -0.0352,10.78125 h -5.59375 -5.59179 l 0.0312,-5.39649 z m 66.95117,0 h 5.57812 5.58008 l 0.12891,10.78125 h -5.5918 -5.59375 l -0.0508,-5.39649 z m 40.16992,0 h 5.57812 5.58008 l 0.22852,10.78125 h -5.59375 -5.5918 l -0.10156,-5.39649 z m 66.19726,10.78125 0.0371,1.08203 h 6.71289 6.71289 l 0.47852,13.01562 h 6.73438 6.73242 l -0.0215,-0.54492 -0.0215,-0.54297 h -6.16992 -6.17188 l -0.24023,-6.51367 -0.24024,-6.49609 h -7.27148 z m -268.49023,1.08203 -0.35938,13.01562 h -7.29492 -7.29492 l -0.0332,1.08789 h 7.85742 7.85742 l 0.17774,-6.52148 0.17773,-6.5 h 5.5957 5.59571 l -0.32227,13.02148 h 0.56055 0.5625 l -0.29492,12.00391 h 6.7539 6.75196 l 0.14062,-6.55469 0.14063,-6.53711 h -6.73243 -6.73437 l 0.16015,-6.51757 0.16016,-6.49805 h -6.71289 z m 40.2793,0 -0.24024,13.01562 h 6.73242 6.73438 l 0.0996,-6.51757 0.0996,-6.49805 h -6.71289 z m 13.22656,13.01562 -0.20117,13.0918 h -6.75391 -6.75195 l 0.11914,-6.55469 0.12109,-6.53711 -1.38672,14.1875 h 7.88086 7.88086 l 0.008,-0.54687 0.008,-0.54883 h 5.6289 6.75196 l 0.0801,-6.55469 0.0801,-6.53711 h -6.73242 z m -14.85352,14.1875 0.69336,-7.10547 0.69336,-7.08203 h -0.56054 -0.5625 z m -91.2832,-26.12109 h 5.5957 5.59571 l -0.40235,10.8457 h -5.60937 -5.60938 l 0.21485,-5.42968 z m 94.00781,0 h 5.59571 5.5957 l -0.16797,10.8457 h -5.60937 -5.60938 l 0.0977,-5.42968 z m 107.4375,0 h 5.59571 5.5957 l 0.0977,10.8457 h -5.60938 -5.60937 l -0.0352,-5.42968 z m 40.29102,0 h 5.5957 5.59571 l 0.19531,10.8457 h -5.60938 -5.60937 l -0.084,-5.42968 z m -228.78125,13.02148 h 5.61133 5.61328 l -0.3711,10.91016 h -5.62695 -5.62695 l 0.20117,-5.46094 z m 53.87695,0 h 5.61328 5.61328 l -0.23828,10.91016 h -5.625 -5.62695 l 0.13281,-5.46094 z m 40.41016,0 h 5.61133 5.61328 l -0.13672,10.91016 h -5.62695 -5.625 l 0.082,-5.46094 z m 107.75586,0 h 5.61328 5.61328 l 0.13086,10.91016 h -5.62695 -5.62696 l -0.0508,-5.46094 z"
       style="fill:url(#linearGradient50023);fill-opacity:1" />
    <path
       id="polygon4313"
       d="M 53.645978,12.564453 27.743634,174.74805 h 1.097656 1.097657 l 0.166015,-1.04102 0.164063,-1.03906 L 43.09715,92.095703 55.450665,14.492188 h 16.904297 16.904297 l 0.146484,-0.964844 0.144532,-0.962891 H 71.599103 Z m 118.273442,0 -4.07032,31.056641 h -8.51172 -8.51171 l -2.12305,15.705078 h -8.54297 -8.54492 l -2.20313,15.824219 2.03516,-6.9375 2.03125,-6.914063 h 8.54687 8.54883 l 1.06055,-7.875 1.05664,-7.845703 h 8.51563 8.51562 l 2.03711,-15.601563 2.02148,-15.484374 h 16.9043 16.9043 l 0.11719,-0.964844 0.11914,-0.962891 h -17.95313 z m -38.44141,48.734375 -4.06641,13.851563 h -7.5039 -7.50391 -1.07226 -1.07227 l -0.28516,1.986328 h 9.65235 9.65234 l 1.10156,-7.933594 z M 239.50535,12.564453 220.89793,174.74805 231.34129,93.095703 241.39793,14.492188 h 16.9043 16.9043 l 0.10156,-0.964844 0.10156,-0.962891 h -17.95117 z m 1.89258,1.927735 -20.5,160.255862 h 1.09766 1.0957 l 0.11914,-1.04102 0.11914,-1.03906 9.20313,-80.572267 z m 65.69336,-1.927735 -15.95703,162.183597 9.10938,-81.652347 8.77148,-78.603515 h 16.90234 16.9043 l 0.0879,-0.964844 0.0859,-0.962891 h -17.9531 z m 1.92383,1.927735 -17.88086,160.255862 h 1.09766 1.09765 l 0.10157,-1.04102 0.10156,-1.03906 7.88672,-80.572267 z m 99.45312,-1.927735 -5.79882,78.529297 h -7.53321 -7.5332 -1.07617 -1.07422 l -0.15625,2.001953 h 9.68945 9.68946 l 2.9082,-39.671875 2.85547,-38.93164 h 16.90429 16.9043 l 0.0625,-0.964844 0.0625,-0.962891 h -17.95117 z m 67.58594,0 -9.32422,162.183597 5.76953,-81.652347 5.55665,-78.603515 h 59.16406 59.16601 l 0.0274,-0.964844 0.0273,-0.962891 h -60.19336 z m 2.00196,1.927735 -11.32618,160.255862 h 1.09571 1.09765 l 0.0605,-1.04102 0.0586,-1.03906 4.5918,-80.572267 z m 166.96093,-1.927735 -0.25781,15.470703 h -8.47852 -8.48046 l -2.69336,130.128904 h 1.09375 1.09375 l 0.0195,-1.03125 0.0215,-1.03125 1.29102,-64.005857 1.25586,-62.119141 h 8.48242 8.48437 l 0.125,-7.757812 0.125,-7.726562 h 50.71094 50.71289 l -0.008,-0.964844 -0.008,-0.962891 h -51.7461 z m 135.16992,0 2.61133,162.183597 h 1.09766 1.09766 l -0.0176,-1.04102 -0.0176,-1.03906 -1.33789,-80.572267 -1.28906,-77.603515 h 50.71289 50.71289 l -0.0391,-0.964844 -0.041,-0.962891 h -51.74414 z m 168.96485,0 0.88086,15.470703 h -8.48047 -8.47852 l 7.75977,146.712894 h 1.09766 1.09765 l -0.0566,-1.04102 -0.0547,-1.03906 -3.875,-72.55078 -3.74609,-70.140628 h 8.48437 8.48243 l -0.44532,-7.757812 -0.44336,-7.726562 h 42.25977 42.25981 l -0.074,-0.964844 -0.076,-0.962891 h -43.29691 z m 135.16996,0 14.5469,162.183597 h 1.0976 1.0977 l -0.094,-1.04102 -0.094,-1.03906 -7.2695,-80.572267 -7,-77.603515 h 59.164 59.166 l -0.1152,-0.964844 -0.1133,-0.962891 h -60.1933 z m 152.0664,0 4.1758,33.013672 h 1.0644 1.0645 l -0.1231,-0.978516 -0.125,-0.978515 -1.8554,-14.615235 -1.8438,-14.513671 h 67.6172 67.6153 l -0.1524,-0.964844 -0.1543,-0.962891 h -68.6426 z m -354.19339,15.470703 0.0781,1.941406 h 9.54492 9.54297 l -0.043,-0.970703 -0.0449,-0.970703 h -8.47851 -8.48047 -1.06055 z m 152.63479,0 0.1504,1.941406 h 9.5449 9.5449 l -0.08,-0.970703 -0.08,-0.970703 h -8.4805 -8.4785 -1.0605 z M 82.731915,43.621094 82.43504,45.578125 h 9.580078 9.580082 l 0.14453,-0.978516 0.14453,-0.978515 h -8.51172 -8.511719 -1.064453 z m 255.349615,0 -0.17579,1.957031 h 9.58008 9.58008 l 0.084,-0.978516 0.084,-0.978515 h -8.51172 -8.51172 -1.06445 z m 527.72265,0 0.0723,1.957031 1.08008,29.572266 h -24.65625 -24.65625 -1.07227 -1.07227 l 0.0488,1.986328 h 26.8125 26.8125 L 868.55028,60.3125 867.93309,43.621094 h -1.06445 z m 153.20902,0 0.1445,1.957031 3.3379,45.515625 h -24.75001 -24.75 -1.07617 -1.07618 l 0.12305,2.001953 h 26.91406 26.91605 l -1.8379,-24.882812 -1.8164,-24.591797 h -1.0644 z m 272.3731,0 0.2714,1.957031 17.9239,129.169925 h 1.0976 1.0977 l -0.1446,-1.04102 -0.1464,-1.03906 -9.1231,-65.50781 -8.8476,-63.539066 h -1.0645 z M 97.4409,59.326172 97.149884,61.298828 h 9.615236 9.61719 l 0.14062,-0.986328 0.14063,-0.986328 h -8.54297 -8.544925 -1.068359 z m 256.3125,0 -0.16992,1.972656 h 9.61523 9.61719 l 0.0801,-0.986328 0.0801,-0.986328 h -8.54297 -8.54492 -1.06836 z m 15.78906,15.824219 -0.16406,1.986328 h 9.6543 9.65234 l 0.0762,-0.994141 0.0781,-0.992187 h -8.57617 -8.57618 -1.07226 z m 137.2168,0 -0.0977,1.986328 h 35.39258 35.39453 l 0.0312,-0.994141 0.0332,-0.992187 h -34.30469 -34.30469 -1.07226 z m 617.48054,0 0.1933,1.986328 h 26.8145 26.8125 l -0.1094,-0.994141 -0.1113,-0.992187 h -25.7266 -25.7285 -1.0723 z M 92.755353,91.09375 92.460431,93.095703 90.089337,109.17773 h 1.082031 1.080079 l 0.148437,-1.00976 0.148437,-1.00781 1.181641,-8.048832 1.177735,-8.017578 h -1.076172 z m 68.871097,0 -0.26367,2.001953 -10.70313,81.652347 h 1.09766 1.09765 l 0.13477,-1.04102 0.13672,-1.03906 5.37695,-41.17774 5.27344,-40.39648 h -1.07617 z m 189.39062,0 -0.17187,2.001953 -1.38477,16.082027 h 1.08008 1.08008 l 0.0879,-1.00976 0.0859,-1.00781 0.6875,-8.048832 0.6875,-8.017578 h -1.07618 z m -243.34765,16.06641 -0.28907,2.01757 -2.32226,16.20313 h 1.08398 1.08594 l 0.14453,-1.01563 0.14649,-1.01562 1.1582,-8.11133 1.1543,-8.07812 h -1.08008 z m 259.24804,0 -0.16601,2.01757 -1.33008,16.20313 h 1.08594 1.08398 l 0.084,-1.01563 0.082,-1.01562 0.66015,-8.11133 0.66016,-8.07812 h -1.08008 z m 16.01953,16.18945 -0.1582,2.03125 -1.27148,16.33008 h 1.08789 1.08984 l 0.0801,-1.02539 0.0781,-1.02344 0.63282,-8.17188 0.63086,-8.14062 h -1.08399 z m 451.08204,0 0.0586,2.03125 0.46289,16.33008 h 1.08789 1.08984 l -0.0293,-1.02539 -0.0293,-1.02344 -0.23633,-8.17188 -0.23633,-8.14062 h -1.08398 z m 34.69921,0 0.0742,2.03125 h 9.76368 9.76367 l -0.043,-1.01563 -0.041,-1.01562 h -8.67578 -8.67383 -1.08398 z m 156.14266,0 0.1484,2.03125 3.6211,49.36719 h 1.0977 1.0976 l -0.076,-1.04102 -0.078,-1.03906 -1.832,-24.80274 -1.8106,-24.51562 h -1.084 z m -625.77937,16.3125 -0.15039,2.04883 -2.43946,33.03711 h 1.09766 1.09765 l 0.0762,-1.04102 0.0762,-1.03906 1.21484,-16.56641 1.20503,-16.43945 h -1.08789 z m 104.49609,0 -0.0996,2.04883 h 44.64844 44.65039 l 0.0293,-1.02539 0.0293,-1.02344 h -43.54101 -43.53907 -1.08789 z m 156.74414,0 -0.0254,2.04883 h 44.65039 44.64844 l -0.008,-1.02539 -0.008,-1.02344 h -43.54101 -43.53907 -1.08984 z m 191.57617,0 0.0664,2.04883 0.5332,16.45312 h 1.09375 1.09375 l -0.0352,-1.03125 -0.0332,-1.03125 -0.27148,-8.23633 -0.26953,-8.20312 h -1.08985 z m 34.83203,0 0.082,2.04883 h 9.80274 9.80078 l -0.0469,-1.02539 -0.0469,-1.02344 h -8.70703 -8.70899 -1.08789 z m -244.09765,16.43945 -0.0332,2.0625 -0.27539,16.58399 h 1.09766 1.09766 l 0.0156,-1.04102 0.0176,-1.03906 0.13281,-8.29883 0.13281,-8.26758 h -1.09179 z m 227.28125,0 0.0762,2.0625 0.60547,16.58399 h 1.09765 1.09766 l -0.0391,-1.04102 -0.0371,-1.03906 -0.3086,-8.29883 -0.30664,-8.26758 h -1.09179 z m -330.32813,62.79297 -4.8164,120.04297 h 1.14062 1.13867 l 0.0449,-1.12109 0.043,-1.1211 2.32227,-58.59765 2.25976,-57.07813 h 13.3125 13.31055 l 0.0352,-1.0625 0.0371,-1.0625 h -14.41407 z m 93.13477,0 -0.96289,51.57813 h -5.60938 -5.60937 -1.1211 -1.12304 l -0.0469,2.17578 h 7.85742 7.85742 l 0.47071,-25.9668 0.46679,-25.66211 h 13.31055 13.31055 l 0.0137,-1.0625 0.0137,-1.0625 h -14.4141 z m 53.21875,0 -0.76563,120.04297 h 1.13867 1.14063 l 0.006,-1.12109 0.006,-1.1211 0.3457,-58.59765 0.33399,-57.07813 h 13.3125 13.31054 v -1.0625 -1.0625 h -14.41406 z m 53.2207,0 0.70508,120.04297 h 1.14062 1.13868 l -0.008,-1.12109 -0.006,-1.1211 -0.375,-58.59765 -0.36523,-57.07813 h 13.3125 13.31055 l -0.0137,-1.0625 -0.0117,-1.0625 h -14.41407 z m 66.52539,0 0.26953,12.78125 h -6.67187 -6.67188 l 0.23438,12.85547 h -6.69336 -6.69141 l 0.19531,12.93164 h -5.59375 -5.59179 -1.11914 -1.11914 l 0.0273,2.16406 h 7.83398 7.83399 l -0.10156,-6.48242 -0.0996,-6.46289 h 6.69336 6.69531 l -0.11914,-6.44336 -0.1211,-6.42578 h 6.67579 6.67578 l -0.13868,-6.40625 -0.13867,-6.38672 h 13.31054 13.3125 l -0.0312,-1.0625 -0.0293,-1.0625 H 820.0972 Z m 53.21875,0 4.01953,120.04297 h 1.13867 1.13868 l -0.0371,-1.12109 -0.0391,-1.1211 -1.99023,-58.59765 -1.94141,-57.07813 h 13.3125 13.31055 l -0.041,-1.0625 -0.043,-1.0625 h -14.41407 z m -266.8125,25.63672 -0.35937,12.93164 1.26562,-5.39648 1.26563,-5.38477 h 6.69531 6.69531 l 0.0254,-1.07617 0.0254,-1.07422 h -7.80664 z m 2.17188,2.15039 -2.53125,10.78125 h -6.71289 -6.71094 l -0.40235,13.00977 h -5.60937 -5.60938 -1.12304 -1.1211 l -0.0742,2.17578 h 7.85742 7.85742 l 0.19726,-6.52149 0.19922,-6.5 h 6.71485 6.71484 l 0.17578,-6.48242 z m 10.89062,10.78125 -0.0527,2.16406 h 7.83398 7.83399 l 0.0234,-1.08203 0.0215,-1.08203 h -6.71094 -6.71094 -1.11914 z m -0.64648,26.0957 -0.0547,2.18946 -0.32617,13.17773 h 1.1289 1.12891 l 0.0273,-1.10156 0.0274,-1.09961 0.16015,-6.5918 0.15821,-6.57422 h -1.125 z m 189.04492,0 0.041,2.18946 h 7.88086 7.87891 l -0.0234,-1.09375 -0.0234,-1.09571 h -6.75196 -6.75195 -1.125 z m -175.82813,13.16602 -0.0469,2.20117 -0.28906,13.25781 h 1.13281 1.13281 l 0.0234,-1.10742 0.0234,-1.10742 0.14062,-6.63281 0.14063,-6.61133 h -1.12891 z m 162.52344,0 0.0332,2.20117 0.20118,13.25781 h 1.13086 1.13281 l -0.0176,-1.10742 -0.0156,-1.10742 -0.10351,-6.63281 -0.10352,-6.61133 h -1.1289 z m 27.08789,0 0.0469,2.20117 h 7.90429 7.9043 l -0.0273,-1.10156 -0.0274,-1.09961 h -6.77148 -6.77149 -1.1289 z m -176.31445,13.24414 -0.041,2.21484 -0.5,26.75391 h 1.14063 1.13867 l 0.0215,-1.12109 0.0195,-1.1211 0.24414,-13.40234 0.24023,-13.32422 h -1.13086 z m 163.01172,0 0.0391,2.21484 0.24219,13.33594 h 1.13672 1.13476 l -0.0195,-1.11328 -0.0215,-1.11328 -0.125,-6.67188 -0.12305,-6.65234 h -1.13281 z m 27.16797,0 0.0527,2.21484 h 7.92774 7.92968 l -0.0312,-1.10742 -0.0312,-1.10742 h -6.79297 -6.79101 -1.13281 z m -13.30274,13.32422 0.0488,2.22656 0.2832,13.41797 h 1.14063 1.13867 l -0.0234,-1.12109 -0.0254,-1.1211 -0.14648,-6.71093 -0.14453,-6.69141 h -1.13477 z"
       style="fill:url(#linearGradient55063);fill-opacity:1" />
    <path
       id="polygon3857"
       d="m 87.145978,14.492188 -4.414063,29.128906 h 1.064453 1.064453 l 2.207032,-14.615235 2.191406,-14.513671 h -1.056641 z m 118.330082,0 -19.44141,158.175782 h -16.45508 -16.45312 l -0.27149,2.08008 h 17.5586 17.56054 l 9.99414,-81.652347 9.6211,-78.603515 h -1.05664 z m 67.61718,0 -16.85546,158.175782 H 239.7827 223.32957 l -0.23828,2.08008 h 17.56055 17.55859 l 8.66016,-81.652347 8.33594,-78.603515 h -1.05665 z m 67.61719,0 -2.6289,29.128906 h 1.06445 1.06445 l 1.31055,-14.615235 1.30078,-14.513671 h -1.05664 z m 101.42383,0 -10.38672,158.175782 h -16.45508 -16.45312 l -0.15235,2.08008 h 17.5586 17.55859 l 5.32227,-81.652347 5.12109,-78.603515 h -1.05664 z m 152.13867,0 -0.84179,29.128906 h -42.5586 -42.55859 l -1.55469,31.529297 h 1.07227 1.07226 L 509.6284,60.3125 510.34715,45.578125 h 42.57813 42.57812 l 0.44336,-15.601563 0.43945,-15.484374 h -1.05664 z m 152.13672,0 0.23047,29.128906 h -42.55664 -42.5586 l -1.20312,96.041016 h 1.08789 1.08984 l 0.57032,-47.566407 0.55859,-46.517578 h 42.57813 42.57812 l -0.13086,-15.601563 -0.13086,-15.484374 h -1.05664 z m 135.23438,0 0.55078,13.542968 0.78125,-6.783203 0.78125,-6.759765 h -1.05664 z m 2.11328,0 -1.5625,13.542968 h 1.05859 1.06055 l -0.2793,-6.783203 z m 150.02349,0 1.0488,13.542968 h 1.0606 1.0605 l -0.5293,-6.783203 -0.5273,-6.759765 h -1.0567 z m 169.043,0 3.4472,29.128906 h -42.5586 -42.5586 l 3.086,31.529297 h 1.0722 1.0723 l -1.4609,-14.837891 -1.4493,-14.734375 h 42.5782 42.5781 l -1.8535,-15.601563 -1.8399,-15.484374 h -1.0566 z m 169.0429,0 4.6367,29.128906 h -25.5351 -25.5352 l 18.961,129.046876 h -16.4532 -16.455 l 0.291,2.08008 h 17.5586 17.5605 l -9.6699,-65.57032 -9.377,-63.599605 h 25.5469 25.5469 l -2.4902,-15.601563 -2.4746,-15.484374 h -1.0567 z M 899.23973,29.976562 901.9741,91.09375 h -8.60937 -8.60742 l 2.23437,2.001953 h 8.61133 8.61328 l -1.4375,-31.796875 -1.41797,-31.322266 h -1.06054 z m -12.24805,63.119141 -1.58203,14.064457 h -8.64258 -8.64062 l 0.59179,16.18945 h 1.08399 1.08398 l -0.26367,-7.09766 -0.26172,-7.07422 h 8.64649 8.64453 l -0.33008,-8.05664 z m 0,0 -1.11914,-1 -1.11523,-1.001953 0.65234,16.06641 0.79102,-7.04297 z m 164.95712,-63.119141 11.6308,142.691408 h -16.4531 -16.4551 l 0.1543,2.08008 h 17.5586 17.5605 l -6.039,-73.62696 -5.836,-71.144528 h -1.0605 z m -237.21493,13.644532 0.76562,31.529297 h 1.07227 1.07227 L 817.27684,60.3125 816.9116,45.578125 h 24.48243 24.48242 l -0.0371,-0.978516 -0.0352,-0.978515 H 840.269 Z m 153.21094,0 2.89843,47.472656 h 1.07618 1.07617 l -1.40821,-22.880859 -1.39453,-22.634766 h 24.48243 24.48242 l -0.072,-0.978516 -0.072,-0.978515 h -25.53324 z m 274.49999,0 0.2481,1.957031 h 24.4824 24.4824 l -0.1347,-0.978516 -0.1367,-0.978515 h -24.4708 z M 99.46629,45.578125 97.4409,59.326172 h 1.066406 1.068359 l 1.011715,-6.884766 1.00782,-6.863281 h -1.06446 z m 255.4707,0 -1.18359,13.748047 h 1.06641 1.06836 l 0.58984,-6.884766 0.58789,-6.863281 h -1.06445 z m -240.6914,15.720703 -1.98633,13.851563 h 1.07227 1.07226 l 0.99024,-6.9375 0.98828,-6.914063 h -1.06836 z m 256.43359,0 -1.13672,13.851563 h 1.07227 1.07226 l 0.56446,-6.9375 0.56445,-6.914063 h -1.06836 z m 15.86133,15.837891 -1.08789,13.957031 h 1.07422 1.07617 l 0.54297,-6.990234 0.53906,-6.966797 h -1.07226 z m 188.76367,0 -0.99023,30.023441 h -34.56641 -34.5664 l -1.60352,32.50195 h 1.08984 1.08789 l 0.7461,-15.29688 0.74219,-15.1875 h 34.58203 34.58203 l 0.52344,-16.082027 0.51757,-15.958984 h -1.07226 z m 600.61132,0 3.3067,30.023441 h -25.9258 -25.9238 l 6.4101,65.50781 h -16.4531 -16.4531 l 0.1875,2.08008 h 17.5586 17.5586 l -3.25,-33.03711 -3.1992,-32.53321 h 25.9355 25.9375 l -1.7793,-16.082027 -1.7656,-15.958984 h -1.0723 z M 75.538556,91.09375 63.177228,172.66797 H 46.724103 30.269025 l -0.330078,2.08008 H 47.49754 65.058087 l 6.22461,-41.21875 6.105468,-40.433597 h 7.53711 7.535156 l 0.148437,-1 0.146485,-1.001953 h -8.607422 z m 68.869144,0 -2.17188,16.06641 h -8.64062 -8.64258 l -2.25391,16.18945 h -7.58984 -7.58984 l -0.29102,2.03125 h 8.67773 8.67969 l 1.12695,-8.11719 1.1211,-8.08594 h 8.64648 8.64453 l 1.08594,-8.05664 1.08008,-8.025387 h 7.53711 7.53516 l 0.13086,-1 0.13281,-1.001953 h -8.60938 z m 189.39258,0 -7.35938,81.57422 H 309.98778 293.5327 l -0.20313,2.08008 h 17.56055 17.55859 l 3.69727,-41.21875 3.62695,-40.433597 h 7.53516 7.53711 l 0.0859,-1 0.0859,-1.001953 h -8.60937 z m -241.251959,16.06641 -0.296874,2.01757 h 7.564453 7.56445 l 0.14453,-1.00976 0.14454,-1.00781 h -7.56055 z m 259.246099,0 -0.17383,2.01757 h 7.5664 7.56446 l 0.082,-1.00976 0.084,-1.00781 h -7.5625 z m 15.96289,16.18945 -0.16602,2.03125 h 7.59375 7.59375 l 0.0801,-1.01563 0.0781,-1.01562 h -7.58984 z m 448.91211,0 1.19726,49.31836 h -16.45312 -16.45508 l 0.0352,2.08008 h 17.55859 17.56055 l -0.61524,-24.82617 -0.60937,-24.54102 h 7.59375 7.5957 l -0.0293,-1.01563 -0.0293,-1.01562 h -8.67383 z m 156.14453,0 3.01172,49.31836 h -16.45508 -16.45313 l 0.11133,2.08008 h 17.55859 17.56055 l -1.52929,-24.82617 -1.51172,-24.54102 h 24.95118 24.9512 l -0.074,-1.01563 -0.074,-1.01562 h -26.02352 z m -86.66407,2.03125 0.58008,14.28125 0.79492,-7.15234 0.79493,-7.12891 h -1.08594 z m 2.16993,0 -1.58985,14.28125 h 1.08789 1.08789 l -0.29296,-7.15234 z m -504.47657,14.28125 -0.1582,2.04883 h 7.62305 7.62305 l 0.0762,-1.02539 0.0742,-1.02344 h -7.61915 z m 452.81641,0 0.0586,2.04883 h 7.62305 7.62305 l -0.0332,-1.02539 -0.0332,-1.02344 h -7.61914 z m -246.06055,2.04883 -0.89453,30.95703 h -60.33008 -60.33203 l -0.11914,2.08008 h 61.45899 61.45703 l 0.4707,-16.58399 0.4668,-16.45312 h -1.08789 z m 156.81836,0 0.2461,30.95703 h -51.55664 -51.55469 l -0.0332,2.08008 h 52.67773 52.67773 l -0.13867,-16.58399 -0.14062,-16.45312 h -1.08789 z m 156.82032,0 1.38476,30.95703 0.39649,-15.53516 0.39648,-15.42187 h -1.08984 z m 2.17773,0 -0.79297,30.95703 h -16.45508 -16.45312 l 0.0762,2.08008 h 17.56055 17.55859 l -0.75,-16.58399 z m -279.08008,14.39062 -0.041,2.0625 h 7.65234 7.65234 l 0.0176,-1.03125 0.0156,-1.03125 h -7.64844 z m 227.28125,0 0.0684,2.0625 h 7.65234 7.65235 l -0.0371,-1.03125 -0.0391,-1.03125 h -7.64844 z m -288.49414,64.91797 -1.67969,49.45313 h 1.1211 1.12304 l 0.83204,-24.86719 0.82226,-24.58594 h -1.10937 z m 93.18164,0 -1.44922,115.67578 h -12.52734 -12.52734 l -0.041,2.24219 h 13.67383 13.67187 l 0.71875,-59.74805 0.69727,-58.16992 h -1.10742 z m 53.24414,0 -0.0293,115.67578 h -12.52735 -12.52734 l -0.0117,2.24219 h 13.67187 13.67383 l -0.0156,-59.74805 -0.0156,-58.16992 h -1.10937 z m 53.2461,0 0.4375,36.44336 h 1.11914 1.11914 l -0.22852,-18.29687 -0.22851,-18.14649 h -1.10938 z m 66.55859,0 0.64258,23.51172 0.78906,-11.78711 0.78711,-11.72461 h -1.10938 z m 2.21875,0 -1.57617,23.51172 h -6.69141 -6.69336 l 0.31446,12.93164 h -6.71094 -6.71289 l 0.27734,13.00977 1.00391,-5.42969 1.0039,-5.41602 h 6.71485 6.71484 l -0.16015,-6.48242 -0.16016,-6.46289 h 6.69531 6.69531 l -0.35937,-12.86914 z m -25.78516,38.60742 -2.00781,10.84571 h -6.73242 -6.73047 l 0.23633,13.08593 h 1.125 1.125 l -0.10156,-5.46093 -0.10157,-5.44922 h 6.73633 6.73438 l -0.14258,-6.52149 z m 76.8125,-38.60742 4.58008,115.67578 h -12.52734 -12.52735 l 0.0762,2.24219 h 13.67382 13.67383 l -2.39844,-59.74805 -2.33398,-58.16992 h -1.10937 z m -280.17773,25.66211 -0.26758,10.78125 h 1.11914 1.11914 l 0.13086,-5.39648 0.13086,-5.38477 h -1.11719 z m 13.10937,12.94531 -0.23632,10.84571 h 1.12304 1.1211 l 0.11523,-5.42969 0.11524,-5.41602 h -1.11915 z m -27.52734,23.93164 -0.36523,13.16602 h -6.77344 -6.77149 l -0.4082,13.24414 h -6.79297 -6.79101 l -0.91016,26.72656 h -12.52734 -12.52735 l -0.0879,2.24219 h 13.67383 13.67188 l 0.44921,-13.41797 0.44727,-13.33594 h 6.79492 6.79492 l 0.20313,-6.63867 0.20117,-6.61914 h 6.77539 6.77344 l 0.18164,-6.59766 0.17969,-6.58007 h 5.6289 5.62891 l 0.0273,-1.09375 0.0274,-1.09571 h -6.75196 z m 216.09961,2.18946 0.23242,10.97656 h 1.12891 1.1289 l -0.12109,-5.49414 -0.11914,-5.48242 h -1.125 z m -200.66406,10.97656 -0.0547,2.20117 h 5.64648 5.64649 l 0.0234,-1.10156 0.0234,-1.09961 h -5.64257 z m 160.26562,0 0.48047,39.9707 H 754.6577 742.13035 l 0.0137,2.24219 h 13.67382 13.67188 l -0.25195,-20.0957 -0.24805,-19.91602 h 5.64453 5.64648 l -0.0156,-1.10156 -0.0176,-1.09961 h -6.77148 z m 54.22852,2.20117 0.26758,11.04297 h 1.13086 1.13281 l -0.13672,-5.52734 -0.13672,-5.51563 h -1.12891 z m -201.23242,11.04297 -0.0469,2.21484 h 5.66406 5.66211 l 0.0215,-1.10742 0.0195,-1.10742 h -5.66016 z m 163.01171,0 0.0332,2.21484 h 5.66406 5.66211 l -0.0195,-1.10742 -0.0195,-1.10742 h -5.66016 z m 52.13282,2.21484 0.66992,24.51172 0.79883,-12.28906 0.79687,-12.22266 h -1.13281 z m 2.26562,0 -1.5957,24.51172 h -12.52734 -12.52735 l 0.0488,2.24219 h 13.67383 13.67187 l -0.37304,-13.41797 z m -40.5664,11.10938 0.041,2.22656 h 5.67969 5.68164 l -0.0254,-1.11328 -0.0234,-1.11328 h -5.67578 z"
       style="fill:#242424;fill-opacity:1" />
  </g>
</svg>
